0
SECTION
2
HEADER
9
$INSUNITS
70
4
9
$ACADVER
1
AC1014
9
$HANDSEED
5
FFFF
0
ENDSEC
0
SECTION
2
TABLES
0
TABLE
2
VPORT
5
8
100
AcDbSymbolTable
0
ENDTAB
0
TABLE
2
LTYPE
5
5
100
AcDbSymbolTable
0
LTYPE
5
14
100
AcDbSymbolTableRecord
100
AcDbLinetypeTableRecord
2
BYBLOCK
70
0
0
LTYPE
5
15
100
AcDbSymbolTableRecord
100
AcDbLinetypeTableRecord
2
BYLAYER
70
0
0
ENDTAB
0
TABLE
2
LAYER
5
2
100
AcDbSymbolTable
70
2
0
LAYER
5
50
100
AcDbSymbolTableRecord
100
AcDbLayerTableRecord
2
0
70
0
6
CONTINUOUS
0
ENDTAB
0
TABLE
2
STYLE
5
3
100
AcDbSymbolTable
70
1
0
STYLE
5
11
100
AcDbSymbolTableRecord
100
AcDbTextStyleTableRecord
2
STANDARD
70
0
0
ENDTAB
0
TABLE
2
VIEW
5
6
100
AcDbSymbolTable
70
0
0
ENDTAB
0
TABLE
2
UCS
5
7
100
AcDbSymbolTable
70
0
0
ENDTAB
0
TABLE
2
APPID
5
9
100
AcDbSymbolTable
70
2
0
APPID
5
12
100
AcDbSymbolTableRecord
100
AcDbRegAppTableRecord
2
ACAD
70
0
0
ENDTAB
0
TABLE
2
DIMSTYLE
5
A
100
AcDbSymbolTable
70
1
0
ENDTAB
0
TABLE
2
BLOCK_RECORD
5
1
100
AcDbSymbolTable
70
1
0
BLOCK_RECORD
5
1F
100
AcDbSymbolTableRecord
100
AcDbBlockTableRecord
2
*MODEL_SPACE
0
BLOCK_RECORD
5
1B
100
AcDbSymbolTableRecord
100
AcDbBlockTableRecord
2
*PAPER_SPACE
0
ENDTAB
0
ENDSEC
0
SECTION
2
BLOCKS
0
BLOCK
5
20
100
AcDbEntity
100
AcDbBlockBegin
2
*MODEL_SPACE
0
ENDBLK
5
21
100
AcDbEntity
100
AcDbBlockEnd
0
BLOCK
5
1C
100
AcDbEntity
100
AcDbBlockBegin
2
*PAPER_SPACE
0
ENDBLK
5
1D
100
AcDbEntity
100
AcDbBlockEnd
0
ENDSEC
0
SECTION
2
ENTITIES
0
LWPOLYLINE
5
100
100
AcDbEntity
8
0
100
AcDbPolyline
90
8
70
1
43
0.0
10
200.28124999999994
20
-252.64582738781058
10
200.28125
20
-236.64582738781064
42
-0.41421356237309503
10
200.78124999999997
20
-236.14582738781067
10
208.78125000000006
20
-236.14582738781067
42
-0.41421356237309503
10
209.28125
20
-236.64582738781064
10
209.28125000000006
20
-252.64582738781058
42
-0.41421356237309503
10
208.78125000000006
20
-253.14582738781058
10
200.78124999999997
20
-253.14582738781058
42
-0.41421356237309503
0
LWPOLYLINE
5
101
100
AcDbEntity
8
0
100
AcDbPolyline
90
88
70
1
43
0.0
10
190.4651440197843
20
-251.79227399721728
10
193.19725080097115
20
-254.52438077840389
42
0.19891236737968954
10
193.5508041915644
20
-254.67082738781068
10
220.44289321881351
20
-254.67082738781062
42
-0.19891236737972101
10
220.79644660940681
20
-254.81727399721734
10
225.50355339059331
20
-259.52438077840389
42
0.19891236737967427
10
225.85710678118662
20
-259.6708273878105
10
255.44289321881351
20
-259.67082738781068
42
0.19891236737972107
10
255.79644660940681
20
-259.52438077840384
10
260.50355339059325
20
-254.81727399721737
42
-0.19891236737965801
10
260.85710678118653
20
-254.67082738781068
10
282.06789321881348
20
-254.67082738781059
42
-0.19891236737976337
10
282.42144660940676
20
-254.81727399721728
10
287.12855339059331
20
-259.52438077840389
42
0.19891236737964493
10
287.48210678118659
20
-259.67082738781062
10
317.06789321881348
20
-259.67082738781068
42
0.19891236737978946
10
317.42144660940681
20
-259.52438077840389
10
322.1285533905932
20
-254.81727399721737
42
-0.1989123673797972
10
322.48210678118664
20
-254.67082738781056
10
328.11250000000001
20
-254.67082738781062
42
0.41421356237315748
10
328.6124999999999
20
-254.17082738781062
10
328.61249999999984
20
-159.92082738781062
42
0.41421356237301177
10
328.11249999999995
20
-159.42082738781065
10
308.48160678118654
20
-159.42082738781065
42
-0.198912367379771
10
308.12805339059321
20
-159.27438077840392
10
303.42094660940654
20
-154.56727399721734
42
0.19891236737965801
10
303.06739321881332
20
-154.42082738781065
10
273.48160678118654
20
-154.42082738781065
42
0.19891236737956888
10
273.12805339059321
20
-154.5672739972174
10
268.42094660940654
20
-159.27438077840392
42
-0.19891236737966561
10
268.06739321881332
20
-159.42082738781065
10
231.99460678118655
20
-159.42082738781065
42
-0.19891236737964715
10
231.64105339059336
20
-159.27438077840389
10
226.93394660940663
20
-154.56727399721734
42
0.19891236737960144
10
226.58039321881347
20
-154.42082738781068
10
196.99460678118655
20
-154.42082738781065
42
0.19891236737966678
10
196.6410533905933
20
-154.56727399721743
10
191.93394660940663
20
-159.27438077840395
42
-0.1989123673796461
10
191.58039321881344
20
-159.42082738781065
10
141.79460678118653
20
-159.42082738781065
42
-0.19891236737966181
10
141.44105339059325
20
-159.27438077840389
10
136.73394660940673
20
-154.56727399721734
42
0.19891236737968954
10
136.38039321881348
20
-154.42082738781065
10
106.79460678118656
20
-154.42082738781065
42
0.19891236737968301
10
106.44105339059325
20
-154.56727399721737
10
101.7339466094067
20
-159.27438077840392
42
-0.19891236737964496
10
101.3803932188134
20
-159.42082738781065
10
60.544606781186516
20
-159.42082738781065
42
-0.19891236737966458
10
60.191053390593261
20
-159.27438077840392
10
55.483946609406694
20
-154.56727399721734
42
0.1989123673796265
10
55.130393218813438
20
-154.42082738781065
10
25.544606781186534
20
-154.42082738781068
42
0.19891236737967377
10
25.191053390593243
20
-154.5672739972174
10
20.483946609406711
20
-159.27438077840392
42
-0.19891236737967105
10
20.130393218813438
20
-159.42082738781065
10
0.49999999999997158
20
-159.42082738781065
42
0.41421356237309503
10
-3.5596525727044082e-14
20
-159.92082738781065
10
-3.5527136788005009e-14
20
-254.17082738781065
42
0.41421356237303258
10
0.49999999999997158
20
-254.67082738781062
10
10.892893218813473
20
-254.67082738781062
42
-0.19891236737970555
10
11.24644660940678
20
-254.81727399721737
10
15.953553390593243
20
-259.52438077840389
42
0.19891236737967269
10
16.307106781186516
20
-259.67082738781056
10
45.89289321881342
20
-259.67082738781068
42
0.19891236737966017
10
46.246446609406739
20
-259.52438077840389
10
50.953553390593278
20
-254.81727399721737
42
-0.19891236737965801
10
51.307106781186533
20
-254.67082738781068
10
72.517893218813441
20
-254.67082738781056
42
-0.19891236737967646
10
72.871446609406718
20
-254.81727399721731
10
77.578553390593257
20
-259.52438077840389
42
0.19891236737967269
10
77.932106781186533
20
-259.67082738781056
10
107.51789321881341
20
-259.67082738781062
42
0.19891236737968571
10
107.87144660940672
20
-259.52438077840378
10
112.57855339059326
20
-254.81727399721737
42
-0.19891236737967105
10
112.93210678118655
20
-254.67082738781062
10
127.88039321881114
20
-254.67082738781062
42
0.19891236737963683
10
128.2339466094044
20
-254.52438077840387
10
130.96605339059329
20
-251.79227399721501
42
-0.19891236737965962
10
131.31960678118656
20
-251.64582738780834
10
147.38125000000022
20
-251.64582738780965
42
0.41421356237314705
10
147.78125000000023
20
-251.24582738780961
10
147.78125
20
-238.6458273878107
42
-0.41421356237309503
10
148.28125000000003
20
-238.1458273878107
10
173.18749999999997
20
-238.14582738781067
42
-0.41421356237313667
10
173.6875
20
-238.64582738781067
10
173.68749999999994
20
-251.14582738781064
42
0.41421356237307422
10
174.1875
20
-251.64582738781053
10
190.11159062919108
20
-251.64582738781061
42
-0.19891236737963192
0
LWPOLYLINE
5
102
100
AcDbEntity
8
0
100
AcDbPolyline
90
6
70
1
43
0.0
10
303.21174969975976
20
-256.42082738781073
42
0.69388866648874925
10
301.33825030024025
20
-256.42082738781073
10
287.27500000000009
20
-256.42082738781068
10
287.27500000000009
20
-257.92082738781062
10
317.27500000000009
20
-257.92082738781062
10
317.27500000000003
20
-256.42082738781068
0
LWPOLYLINE
5
103
100
AcDbEntity
8
0
100
AcDbPolyline
90
8
70
1
43
0.0
10
176.18750000000003
20
-246.14582738781067
10
176.18750000000003
20
-244.14582738781061
42
-0.41421356237309503
10
177.18750000000003
20
-243.14582738781058
10
197.78125000000003
20
-243.14582738781058
42
-0.41421356237309503
10
198.78125000000006
20
-244.14582738781061
10
198.78125000000006
20
-246.14582738781067
42
-0.41421356237309503
10
197.78125000000003
20
-247.1458273878107
10
177.18750000000003
20
-247.1458273878107
42
-0.41421356237309503
0
LWPOLYLINE
5
104
100
AcDbEntity
8
0
100
AcDbPolyline
90
6
70
1
43
0.0
10
225.65000000000003
20
-256.42082738781068
10
239.7132503002403
20
-256.42082738781068
42
-0.69388866648874159
10
241.58674969975982
20
-256.42082738781073
10
255.65000000000003
20
-256.42082738781068
10
255.65000000000003
20
-257.92082738781062
10
225.65000000000003
20
-257.92082738781062
0
LWPOLYLINE
5
105
100
AcDbEntity
8
0
100
AcDbPolyline
90
8
70
1
43
0.0
10
326.08750000000015
20
-162.44582738781065
10
326.08749999999998
20
-175.44582738781065
42
-0.41421356237326151
10
325.58750000000003
20
-175.9458273878106
10
312.58750000000003
20
-175.94582738781068
42
-0.41421356237313667
10
312.08749999999998
20
-175.44582738781062
10
312.08749999999998
20
-162.44582738781062
42
-0.41421356237315748
10
312.58749999999992
20
-161.94582738781071
10
325.58750000000003
20
-161.94582738781065
42
-0.41421356237319906
0
LWPOLYLINE
5
106
100
AcDbEntity
8
0
100
AcDbPolyline
90
8
70
1
43
0.0
10
312.08749999999998
20
-213.54582738781068
42
0.41421356237315748
10
312.58749999999998
20
-214.04582738781073
10
325.58750000000003
20
-214.04582738781062
42
0.41421356237326151
10
326.08749999999998
20
-213.54582738781068
10
326.08750000000015
20
-200.54582738781068
42
0.41421356237319906
10
325.58750000000003
20
-200.04582738781062
10
312.58750000000003
20
-200.04582738781065
42
0.41421356237309503
10
312.08749999999998
20
-200.54582738781068
0
LWPOLYLINE
5
107
100
AcDbEntity
8
0
100
AcDbPolyline
90
8
70
1
43
0.0
10
235.05000000000001
20
-251.64582738781064
42
0.41421356237301177
10
235.55000000000007
20
-252.14582738781073
10
236.54999999999995
20
-252.14582738781061
42
0.4142135623730534
10
237.04999999999998
20
-251.64582738781064
10
237.0500000000001
20
-238.64582738781067
42
0.41421356237315748
10
236.55000000000001
20
-238.14582738781058
10
235.55000000000004
20
-238.14582738781067
42
0.41421356237307422
10
235.05000000000001
20
-238.64582738781056
0
LWPOLYLINE
5
108
100
AcDbEntity
8
0
100
AcDbPolyline
90
8
70
1
43
0.0
10
273.98750000000007
20
-251.64582738781061
42
0.4142135623730534
10
274.48750000000007
20
-252.14582738781061
10
287.48749999999995
20
-252.14582738781061
42
0.41421356237311585
10
287.98749999999995
20
-251.64582738781064
10
287.98750000000007
20
-238.64582738781067
42
0.41421356237315748
10
287.48750000000001
20
-238.14582738781058
10
274.48750000000007
20
-238.14582738781064
42
0.41421356237313667
10
273.98749999999995
20
-238.64582738781064
0
LWPOLYLINE
5
109
100
AcDbEntity
8
0
100
AcDbPolyline
90
8
70
1
43
0.0
10
307.03750000000002
20
-219.59582738781063
10
307.03750000000002
20
-232.59582738781063
42
-0.41421356237313667
10
306.53750000000002
20
-233.09582738781052
10
293.53750000000002
20
-233.09582738781069
42
-0.41421356237307422
10
293.03750000000002
20
-232.59582738781063
10
293.03750000000002
20
-219.59582738781063
42
-0.41421356237309503
10
293.53749999999997
20
-219.09582738781066
10
306.53749999999997
20
-219.09582738781069
42
-0.41421356237301177
0
LWPOLYLINE
5
110
100
AcDbEntity
8
0
100
AcDbPolyline
90
8
70
1
43
0.0
10
293.03750000000002
20
-251.64582738781064
42
0.41421356237292856
10
293.53749999999997
20
-252.14582738781061
10
306.53749999999997
20
-252.14582738781061
42
0.41421356237313667
10
307.03750000000002
20
-251.64582738781064
10
307.03750000000008
20
-238.64582738781067
42
0.41421356237319906
10
306.53749999999997
20
-238.14582738781058
10
293.53749999999997
20
-238.14582738781064
42
0.41421356237309503
10
293.03749999999997
20
-238.64582738781064
0
LWPOLYLINE
5
111
100
AcDbEntity
8
0
100
AcDbPolyline
90
8
70
1
43
0.0
10
240.65000000000003
20
-251.64582738781064
42
0.41421356237301177
10
241.15000000000003
20
-252.14582738781061
10
256.53125
20
-252.14582738781073
42
0.41421356237311585
10
257.03125000000011
20
-251.64582738781064
10
257.0312500000008
20
-238.64582738781064
42
0.41421356237309503
10
256.5312500000008
20
-238.14582738781058
10
241.15000000000003
20
-238.1458273878107
42
0.41421356237307422
10
240.65000000000003
20
-238.6458273878107
0
LWPOLYLINE
5
112
100
AcDbEntity
8
0
100
AcDbPolyline
90
8
70
1
43
0.0
10
249.88749999999996
20
-162.44582738781062
10
249.88749999999996
20
-175.44582738781065
42
-0.41421356237301177
10
249.38749999999999
20
-175.94582738781065
10
236.38749999999999
20
-175.94582738781068
42
-0.41421356237313667
10
235.88749999999999
20
-175.44582738781065
10
235.88750000000002
20
-162.44582738781062
42
-0.41421356237311585
10
236.38749999999993
20
-161.94582738781065
10
249.38749999999996
20
-161.94582738781062
42
-0.41421356237313667
0
LWPOLYLINE
5
113
100
AcDbEntity
8
0
100
AcDbPolyline
90
8
70
1
43
0.0
10
326.08750000000015
20
-181.49582738781061
10
326.08749999999992
20
-194.49582738781064
42
-0.41421356237328233
10
325.58749999999998
20
-194.99582738781066
10
312.58749999999998
20
-194.99582738781072
42
-0.41421356237309503
10
312.08749999999998
20
-194.49582738781066
10
312.08749999999998
20
-181.49582738781061
42
-0.41421356237307422
10
312.58750000000003
20
-180.99582738781064
10
325.58750000000003
20
-180.99582738781064
42
-0.4142135623731783
0
LWPOLYLINE
5
114
100
AcDbEntity
8
0
100
AcDbPolyline
90
16
70
1
43
0.0
10
232.71875
20
-252.14582738781073
10
228.95749999999992
20
-252.14582738781149
42
0.41421356237303258
10
228.45750000000007
20
-252.64582738781144
10
228.45750000000007
20
-252.76582738781065
42
-0.41421356237307422
10
227.9575000000001
20
-253.26582738781067
10
219.71750000000009
20
-253.26582738781067
42
-0.41421356237311585
10
219.21750000000003
20
-252.76582738781065
10
219.21750000000006
20
-236.52582738781064
42
-0.41421356237315748
10
219.71750000000003
20
-236.02582738781064
10
227.95750000000004
20
-236.02582738781058
42
-0.4142135623730534
10
228.45750000000004
20
-236.52582738781064
10
228.45750000000007
20
-237.64582738781073
42
0.41421356237309503
10
228.95750000000007
20
-238.1458273878107
10
232.71875
20
-238.14582738781073
42
-0.41421356237313667
10
233.21875000000006
20
-238.6458273878107
10
233.21875000000009
20
-251.64582738781064
42
-0.41421356237301177
0
LWPOLYLINE
5
115
100
AcDbEntity
8
0
100
AcDbPolyline
90
8
70
1
43
0.0
10
258.74999999999994
20
-238.14582738781056
42
0.41421356237303258
10
258.25
20
-238.64582738781064
10
258.25
20
-251.64582738781061
42
0.41421356237309503
10
258.74999999999994
20
-252.14582738781061
10
259.75
20
-252.14582738781058
42
0.41421356237309503
10
260.24999999999994
20
-251.64582738781064
10
260.25000000000006
20
-238.64582738781064
42
0.41421356237313667
10
259.74999999999994
20
-238.14582738781058
0
LWPOLYLINE
5
116
100
AcDbEntity
8
0
100
AcDbPolyline
90
8
70
1
43
0.0
10
312.58749999999998
20
-238.14582738781058
10
325.58750000000003
20
-238.14582738781058
42
-0.4142135623731783
10
326.0875000000002
20
-238.64582738781064
10
326.08750000000009
20
-251.64582738781064
42
-0.4142135623731783
10
325.58750000000003
20
-252.14582738781053
10
312.58750000000003
20
-252.14582738781064
42
-0.4142135623730534
10
312.08749999999998
20
-251.64582738781061
10
312.08749999999986
20
-238.64582738781064
42
-0.41421356237313667
0
LWPOLYLINE
5
117
100
AcDbEntity
8
0
100
AcDbPolyline
90
8
70
1
43
0.0
10
312.58749999999998
20
-219.09582738781066
10
325.58749999999986
20
-219.09582738781066
42
-0.4142135623731783
10
326.08749999999998
20
-219.59582738781063
10
326.08749999999992
20
-232.59582738781063
42
-0.41421356237326151
10
325.58750000000003
20
-233.09582738781052
10
312.58749999999998
20
-233.09582738781069
42
-0.41421356237307422
10
312.08749999999998
20
-232.59582738781063
10
312.08749999999998
20
-219.59582738781069
42
-0.41421356237315748
0
LWPOLYLINE
5
118
100
AcDbEntity
8
0
100
AcDbPolyline
90
6
70
1
43
0.0
10
196.78750000000002
20
-157.67082738781065
10
196.78750000000002
20
-156.17082738781068
10
226.78750000000002
20
-156.17082738781068
10
226.78750000000002
20
-157.67082738781065
10
212.72424969975987
20
-157.67082738781065
42
-0.69388866648872916
10
210.85075030024015
20
-157.67082738781068
0
LWPOLYLINE
5
119
100
AcDbEntity
8
0
100
AcDbPolyline
90
8
70
1
43
0.0
10
113.53750000000005
20
-253.1458273878107
10
100.78125000000003
20
-253.14582738781067
42
-0.41421356237309503
10
100.28125000000003
20
-252.64582738781064
10
100.28125000000003
20
-236.6458273878107
42
-0.41421356237309503
10
100.78125000000003
20
-236.1458273878107
10
113.53750000000005
20
-236.1458273878107
42
-0.41421356237309503
10
114.03750000000005
20
-236.6458273878107
10
114.03750000000009
20
-252.64582738781064
42
-0.41421356237309503
0
LWPOLYLINE
5
120
100
AcDbEntity
8
0
100
AcDbPolyline
90
8
70
1
43
0.0
10
96.32499999999996
20
-251.64582738781064
10
96.32499999999996
20
-238.64582738781067
42
-0.41421356237310542
10
96.824999999999989
20
-238.14582738781064
10
97.824999999999989
20
-238.14582738781064
42
-0.41421356237307422
10
98.32499999999996
20
-238.64582738781064
10
98.325000000000074
20
-251.64582738781064
42
-0.41421356237310542
10
97.824999999999974
20
-252.14582738781073
10
96.824999999999974
20
-252.14582738781061
42
-0.41421356237311585
0
LWPOLYLINE
5
121
100
AcDbEntity
8
0
100
AcDbPolyline
90
8
70
1
43
0.0
10
144.28125
20
-247.1458273878107
10
116.53750000000004
20
-247.14582738781058
42
-0.41421356237310025
10
115.53750000000005
20
-246.14582738781058
10
115.53750000000005
20
-244.14582738781064
42
-0.41421356237310025
10
116.53750000000004
20
-243.14582738781064
10
144.28125
20
-243.14582738781058
42
-0.41421356237309503
10
145.28125000000003
20
-244.14582738781061
10
145.28125000000011
20
-246.14582738781058
42
-0.41421356237309503
0
LWPOLYLINE
5
122
100
AcDbEntity
8
0
100
AcDbPolyline
90
6
70
1
43
0.0
10
287.3377503002402
20
-157.67082738781065
42
0.6938886664886984
10
289.21124969975961
20
-157.67082738781065
10
303.27449999999993
20
-157.67082738781065
10
303.27449999999993
20
-156.17082738781068
10
273.27449999999993
20
-156.17082738781068
10
273.27449999999993
20
-157.67082738781065
0
LWPOLYLINE
5
123
100
AcDbEntity
8
0
100
AcDbPolyline
90
6
70
1
43
0.0
10
77.725000000000009
20
-256.42082738781068
10
91.788250300240264
20
-256.42082738781068
42
-0.69388866648872227
10
93.661749699759781
20
-256.42082738781073
10
107.72499999999999
20
-256.42082738781068
10
107.72500000000001
20
-257.92082738781062
10
77.725000000000009
20
-257.92082738781062
0
LWPOLYLINE
5
124
100
AcDbEntity
8
0
100
AcDbPolyline
90
8
70
1
43
0.0
10
254.93750000000006
20
-175.44582738781065
10
254.93750000000009
20
-162.44582738781062
42
-0.41421356237299095
10
255.43749999999994
20
-161.94582738781065
10
268.43749999999994
20
-161.9458273878106
42
-0.41421356237311585
10
268.93749999999994
20
-162.44582738781062
10
268.93749999999994
20
-175.44582738781065
42
-0.41421356237319906
10
268.43749999999994
20
-175.94582738781057
10
255.43749999999994
20
-175.94582738781071
42
-0.41421356237309503
0
LWPOLYLINE
5
125
100
AcDbEntity
8
0
100
AcDbPolyline
90
20
70
1
43
0.0
10
273.98749999999995
20
-175.44582738781062
42
0.41421356237319906
10
274.48750000000013
20
-175.94582738781065
10
274.94950000000006
20
-175.94582738781065
10
274.94950000000006
20
-176.4458273878106
42
0.41421356237316442
10
275.69950000000006
20
-177.19582738781068
10
281.4495
20
-177.1958273878106
42
0.41421356237309503
10
282.19949999999994
20
-176.44582738781065
10
282.19949999999994
20
-175.94582738781065
10
298.82550000000003
20
-175.94582738781065
10
298.82550000000003
20
-176.44582738781065
42
0.41421356237310897
10
299.57549999999992
20
-177.19582738781068
10
305.32550000000009
20
-177.19582738781068
42
0.41421356237309503
10
306.07550000000009
20
-176.44582738781065
10
306.07550000000009
20
-175.94582738781065
10
306.53750000000002
20
-175.9458273878106
42
0.41421356237315748
10
307.03750000000002
20
-175.44582738781065
10
307.03749999999997
20
-162.44582738781062
42
0.41421356237309503
10
306.53749999999997
20
-161.94582738781065
10
274.48750000000007
20
-161.94582738781065
42
0.41421356237309503
10
273.98750000000001
20
-162.44582738781065
0
LWPOLYLINE
5
126
100
AcDbEntity
8
0
100
AcDbPolyline
90
8
70
1
43
0.0
10
217.33750000000001
20
-161.94582738781065
42
0.4142135623730534
10
216.83750000000003
20
-162.44582738781065
10
216.83750000000003
20
-175.44582738781062
42
0.41421356237307422
10
217.33750000000001
20
-175.94582738781068
10
230.33750000000001
20
-175.9458273878106
42
0.41421356237311585
10
230.83750000000003
20
-175.44582738781065
10
230.83750000000006
20
-162.44582738781065
42
0.41421356237307422
10
230.33749999999995
20
-161.94582738781065
0
LWPOLYLINE
5
127
100
AcDbEntity
8
0
100
AcDbPolyline
90
29
70
1
43
0.0
10
269.72500000000002
20
-200.04582738781062
10
290.65625
20
-200.04582738781062
10
290.65625
20
-194.99582738781061
10
288.77499999999998
20
-194.99582738781069
42
-0.41421356237307422
10
288.27500000000003
20
-194.49582738781064
10
288.27500000000003
20
-181.49582738781061
42
-0.41421356237301177
10
288.77499999999992
20
-180.99582738781061
10
301.77499999999992
20
-180.99582738781064
42
-0.41421356237321988
10
302.27499999999992
20
-181.49582738781064
10
302.27499999999998
20
-181.83282738781062
10
304.15625
20
-181.83282738781065
42
-0.41421356237308116
10
304.90625
20
-182.58282738781071
10
304.90625
20
-212.45882738781069
42
-0.41421356237309503
10
304.15625
20
-213.20882738781069
10
303.81925000000001
20
-213.20882738781066
10
303.81925000000001
20
-214.54582738781059
42
-0.41421356237309503
10
303.06925000000001
20
-215.29582738781059
10
297.06925000000001
20
-215.29582738781059
42
-0.4142135623730534
10
296.31925000000007
20
-214.54582738781062
10
296.31925000000001
20
-214.04582738781068
10
279.94324999999998
20
-214.04582738781068
10
279.94324999999998
20
-214.54582738781068
42
-0.41421356237309503
10
279.19325000000003
20
-215.29582738781062
10
273.19324999999998
20
-215.29582738781059
42
-0.41421356237309503
10
272.44324999999998
20
-214.54582738781059
10
272.44324999999998
20
-214.04582738781068
10
269.72500000000002
20
-214.04582738781068
42
-0.41421356237313667
10
269.22500000000002
20
-213.54582738781065
10
269.22499999999991
20
-200.54582738781068
42
-0.41421356237313667
0
LWPOLYLINE
5
128
100
AcDbEntity
8
0
100
AcDbPolyline
90
8
70
1
43
0.0
10
267.34375
20
-219.09582738781057
10
280.34375
20
-219.09582738781066
42
-0.4142135623732407
10
280.84375
20
-219.59582738781066
10
280.84375
20
-232.59582738781063
42
-0.41421356237307422
10
280.34375
20
-233.09582738781063
10
267.34374999999994
20
-233.09582738781069
42
-0.41421356237303258
10
266.84375
20
-232.59582738781063
10
266.84374999999994
20
-219.59582738781063
42
-0.41421356237301177
0
LWPOLYLINE
5
129
100
AcDbEntity
8
0
100
AcDbPolyline
90
8
70
1
43
0.0
10
92.224999999999966
20
-252.14582738781061
10
76.843749999999815
20
-252.14582738781061
42
-0.4142135623730534
10
76.343749999999801
20
-251.64582738781061
10
76.343749999999986
20
-238.6458273878107
42
-0.41421356237309503
10
76.843750000000028
20
-238.14582738781067
10
92.224999999999966
20
-238.14582738781064
42
-0.41421356237311585
10
92.725000000000009
20
-238.64582738781064
10
92.725000000000009
20
-251.64582738781064
42
-0.41421356237313667
0
LWPOLYLINE
5
130
100
AcDbEntity
8
0
100
AcDbPolyline
90
8
70
1
43
0.0
10
75.124999999999957
20
-238.64582738781064
10
75.125
20
-251.64582738781064
42
-0.41421356237311585
10
74.624999999999986
20
-252.14582738781061
10
73.624999999999986
20
-252.14582738781061
42
-0.41421356237304302
10
73.124999999999972
20
-251.64582738781064
10
73.124999999999972
20
-238.64582738781064
42
-0.41421356237307422
10
73.624999999999972
20
-238.14582738781058
10
74.624999999999972
20
-238.14582738781067
42
-0.41421356237310542
0
LWPOLYLINE
5
131
100
AcDbEntity
8
0
100
AcDbPolyline
90
8
70
1
43
0.0
10
16.524999999999928
20
-238.64582738781064
10
16.524999999999963
20
-251.64582738781064
42
-0.41421356237307422
10
16.024999999999956
20
-252.14582738781053
10
3.0249999999999488
20
-252.14582738781061
42
-0.4142135623730534
10
2.5249999999999417
20
-251.64582738781061
10
2.5249999999999773
20
-238.64582738781064
42
-0.41421356237307422
10
3.0249999999999488
20
-238.14582738781064
10
16.024999999999956
20
-238.14582738781067
42
-0.41421356237309503
0
LWPOLYLINE
5
132
100
AcDbEntity
8
0
100
AcDbPolyline
90
6
70
1
43
0.0
10
32.036749699759746
20
-256.42082738781073
42
0.69388866648873249
10
30.163250300240243
20
-256.42082738781073
10
16.099999999999994
20
-256.42082738781068
10
16.099999999999994
20
-257.92082738781062
10
46.099999999999994
20
-257.92082738781062
10
46.099999999999994
20
-256.42082738781068
0
LWPOLYLINE
5
133
100
AcDbEntity
8
0
100
AcDbPolyline
90
8
70
1
43
0.0
10
25.499999999999972
20
-251.64582738781064
42
0.41421356237309503
10
25.999999999999979
20
-252.1458273878107
10
26.999999999999957
20
-252.14582738781061
42
0.41421356237311585
10
27.499999999999964
20
-251.64582738781064
10
27.499999999999947
20
-238.64582738781064
42
0.41421356237309503
10
26.999999999999957
20
-238.14582738781058
10
25.999999999999979
20
-238.14582738781067
42
0.41421356237309503
10
25.500000000000007
20
-238.64582738781064
0
LWPOLYLINE
5
134
100
AcDbEntity
8
0
100
AcDbPolyline
90
8
70
1
43
0.0
10
49.199999999999982
20
-238.14582738781064
42
0.41421356237309503
10
48.699999999999974
20
-238.64582738781064
10
48.699999999999903
20
-251.64582738781064
42
0.4142135623730534
10
49.199999999999982
20
-252.14582738781073
10
50.19999999999996
20
-252.14582738781053
42
0.41421356237307422
10
50.699999999999967
20
-251.64582738781064
10
50.699999999999967
20
-238.64582738781064
42
0.41421356237309503
10
50.19999999999996
20
-238.14582738781058
0
LWPOLYLINE
5
135
100
AcDbEntity
8
0
100
AcDbPolyline
90
8
70
1
43
0.0
10
53.031250000000028
20
-238.14582738781067
10
68.412499999999952
20
-238.14582738781064
42
-0.41421356237309503
10
68.912499999999966
20
-238.64582738781064
10
68.912499999999994
20
-251.64582738781064
42
-0.4142135623730534
10
68.412499999999952
20
-252.14582738781061
10
53.031250000000156
20
-252.14582738781061
42
-0.4142135623730534
10
52.531250000000114
20
-251.64582738781064
10
52.531250000000007
20
-238.64582738781075
42
-0.4142135623730846
0
LWPOLYLINE
5
136
100
AcDbEntity
8
0
100
AcDbPolyline
90
8
70
1
43
0.0
10
28.718750000000028
20
-251.64582738781064
42
0.41421356237304302
10
29.218750000000053
20
-252.14582738781061
10
44.600000000000044
20
-252.1458273878107
42
0.41421356237309503
10
45.100000000000051
20
-251.64582738781064
10
45.09999999999998
20
-238.64582738781064
42
0.41421356237309503
10
44.599999999999973
20
-238.14582738781058
10
29.218750000000036
20
-238.1458273878107
42
0.41421356237310542
10
28.718750000000028
20
-238.6458273878107
0
LWPOLYLINE
5
137
100
AcDbEntity
8
0
100
AcDbPolyline
90
20
70
1
43
0.0
10
60.181749999999958
20
-234.3458273878106
10
54.18174999999998
20
-234.34582738781063
42
-0.41421356237308116
10
53.431749999999951
20
-233.59582738781063
10
53.431749999999987
20
-233.09582738781069
10
37.055749999999975
20
-233.09582738781069
10
37.055749999999996
20
-233.5958273878106
42
-0.4142135623730534
10
36.305749999999968
20
-234.3458273878106
10
30.305749999999954
20
-234.3458273878106
42
-0.41421356237309503
10
29.555749999999961
20
-233.5958273878106
10
29.555749999999961
20
-233.09582738781069
10
29.218749999999947
20
-233.09582738781063
42
-0.41421356237306384
10
28.718749999999957
20
-232.59582738781066
10
28.718749999999957
20
-219.59582738781069
42
-0.41421356237309503
10
29.218749999999964
20
-219.09582738781069
10
63.649999999999984
20
-219.09582738781066
42
-0.41421356237311585
10
64.149999999999949
20
-219.59582738781066
10
64.149999999999991
20
-232.59582738781063
42
-0.41421356237307422
10
63.649999999999984
20
-233.09582738781069
10
60.931749999999987
20
-233.09582738781069
10
60.931749999999987
20
-233.5958273878106
42
-0.4142135623730534
0
LWPOLYLINE
5
138
100
AcDbEntity
8
0
100
AcDbPolyline
90
6
70
1
43
0.0
10
39.400750300240219
20
-157.67082738781065
42
0.69388866648870196
10
41.274249699759729
20
-157.67082738781068
10
55.337499999999977
20
-157.67082738781068
10
55.337499999999977
20
-156.17082738781068
10
25.337499999999977
20
-156.17082738781068
10
25.337499999999977
20
-157.67082738781068
0
LWPOLYLINE
5
139
100
AcDbEntity
8
0
100
AcDbPolyline
90
8
70
1
43
0.0
10
103.03749999999999
20
-161.94582738781065
42
0.41421356237314705
10
102.53749999999995
20
-162.44582738781065
10
102.53749999999997
20
-175.44582738781065
42
0.41421356237309503
10
103.03749999999997
20
-175.94582738781065
10
116.03749999999994
20
-175.94582738781068
42
0.41421356237307422
10
116.53749999999994
20
-175.44582738781065
10
116.53749999999995
20
-162.44582738781065
42
0.41421356237307422
10
116.03749999999994
20
-161.94582738781065
0
LWPOLYLINE
5
140
100
AcDbEntity
8
0
100
AcDbPolyline
90
4
70
1
43
0.0
10
11.124999999999936
20
-162.1937410966172
10
11.124999999999972
20
-172.6937410966172
42
-0.99999999999999989
10
7.9249999999999687
20
-172.6937410966172
10
7.9249999999999332
20
-162.19374109661715
42
-0.99999999999999989
0
LWPOLYLINE
5
141
100
AcDbEntity
8
0
100
AcDbPolyline
90
8
70
1
43
0.0
10
78.437499999999972
20
-162.44582738781065
10
78.437499999999929
20
-175.44582738781065
42
-0.41421356237309503
10
77.9375
20
-175.9458273878106
10
64.937499999999972
20
-175.94582738781068
42
-0.41421356237306384
10
64.437499999999972
20
-175.44582738781071
10
64.437500000000014
20
-162.44582738781065
42
-0.41421356237315748
10
64.937499999999986
20
-161.94582738781065
10
77.937499999999972
20
-161.94582738781065
42
-0.4142135623730846
0
LWPOLYLINE
5
142
100
AcDbEntity
8
0
100
AcDbPolyline
90
8
70
1
43
0.0
10
173.18749999999997
20
-175.94582738781065
10
160.18749999999997
20
-175.94582738781068
42
-0.41421356237309503
10
159.68749999999997
20
-175.44582738781065
10
159.68749999999997
20
-162.44582738781065
42
-0.41421356237311585
10
160.1875
20
-161.94582738781065
10
173.18749999999997
20
-161.94582738781062
42
-0.41421356237311585
10
173.6875
20
-162.4458273878106
10
173.68749999999991
20
-175.44582738781065
42
-0.41421356237299095
0
LWPOLYLINE
5
143
100
AcDbEntity
8
0
100
AcDbPolyline
90
8
70
1
43
0.0
10
45.88749999999996
20
-161.94582738781065
10
58.887499999999982
20
-161.94582738781062
42
-0.41421356237311585
10
59.387499999999953
20
-162.44582738781062
10
59.387499999999918
20
-175.44582738781065
42
-0.41421356237309503
10
58.887499999999982
20
-175.9458273878106
10
45.887499999999974
20
-175.94582738781068
42
-0.41421356237309503
10
45.387499999999967
20
-175.44582738781065
10
45.387499999999967
20
-162.44582738781071
42
-0.4142135623730846
0
LWPOLYLINE
5
144
100
AcDbEntity
8
0
100
AcDbPolyline
90
8
70
1
43
0.0
10
26.837499999999963
20
-161.94582738781065
42
0.41421356237309503
10
26.337499999999956
20
-162.44582738781062
10
26.337499999999956
20
-175.44582738781065
42
0.41421356237309503
10
26.837499999999963
20
-175.94582738781065
10
39.83749999999997
20
-175.94582738781065
42
0.41421356237309503
10
40.337499999999977
20
-175.44582738781065
10
40.337499999999977
20
-162.44582738781062
42
0.41421356237309503
10
39.83749999999997
20
-161.94582738781065
0
LWPOLYLINE
5
145
100
AcDbEntity
8
0
100
AcDbPolyline
90
8
70
1
43
0.0
10
45.09999999999998
20
-181.49582738781064
42
0.41421356237307422
10
44.599999999999973
20
-180.99582738781069
10
31.599999999999966
20
-180.99582738781064
42
0.41421356237309503
10
31.099999999999959
20
-181.49582738781061
10
31.099999999999977
20
-194.49582738781066
42
0.41421356237309503
10
31.599999999999966
20
-194.99582738781061
10
44.599999999999973
20
-194.99582738781058
42
0.4142135623730534
10
45.09999999999998
20
-194.49582738781066
0
LWPOLYLINE
5
146
100
AcDbEntity
8
0
100
AcDbPolyline
90
8
70
1
43
0.0
10
97.487499999999983
20
-162.44582738781062
42
0.41421356237307422
10
96.987499999999969
20
-161.94582738781068
10
83.98749999999994
20
-161.94582738781062
42
0.41421356237312623
10
83.487499999999969
20
-162.44582738781065
10
83.487499999999983
20
-175.44582738781065
42
0.4142135623730846
10
83.98749999999994
20
-175.94582738781065
10
96.987499999999969
20
-175.94582738781065
42
0.41421356237309503
10
97.487499999999983
20
-175.44582738781065
0
LWPOLYLINE
5
147
100
AcDbEntity
8
0
100
AcDbPolyline
90
4
70
1
43
0.0
10
15.624999999999964
20
-162.25000002235166
42
0.99999999999999989
10
12.424999999999962
20
-162.25000002235166
10
12.424999999999962
20
-172.6937410966172
42
0.99999999999999989
10
15.624999999999964
20
-172.6937410966172
0
LWPOLYLINE
5
148
100
AcDbEntity
8
0
100
AcDbPolyline
90
8
70
1
43
0.0
10
122.08749999999996
20
-161.94582738781065
42
0.41421356237310542
10
121.58749999999996
20
-162.44582738781062
10
121.58749999999998
20
-175.44582738781065
42
0.41421356237309503
10
122.08749999999998
20
-175.94582738781065
10
135.08749999999995
20
-175.94582738781068
42
0.41421356237307422
10
135.58749999999998
20
-175.44582738781065
10
135.58749999999998
20
-162.44582738781062
42
0.41421356237304302
10
135.08749999999998
20
-161.94582738781065
0
LWPOLYLINE
5
149
100
AcDbEntity
8
0
100
AcDbPolyline
90
6
70
1
43
0.0
10
136.58749999999998
20
-157.67082738781065
10
122.52424969975971
20
-157.67082738781065
42
-0.69388866648872993
10
120.65075030024025
20
-157.67082738781065
10
106.58749999999999
20
-157.67082738781065
10
106.58749999999998
20
-156.17082738781068
10
136.58749999999998
20
-156.17082738781068
0
LWPOLYLINE
5
150
100
AcDbEntity
8
0
100
AcDbPolyline
90
8
70
1
43
0.0
10
46.981249999999974
20
-214.04582738781068
10
29.218749999999964
20
-214.0458273878107
42
-0.41421356237309503
10
28.718749999999957
20
-213.54582738781068
10
28.718749999999922
20
-200.54582738781068
42
-0.41421356237311585
10
29.218749999999964
20
-200.04582738781062
10
46.981249999999974
20
-200.04582738781068
42
-0.41421356237311585
10
47.481249999999982
20
-200.54582738781073
10
47.481249999999946
20
-213.54582738781068
42
-0.41421356237309503
0
LWPOLYLINE
5
151
100
AcDbEntity
8
0
100
AcDbPolyline
90
8
70
1
43
0.0
10
154.13749999999996
20
-175.94582738781065
10
141.13749999999996
20
-175.94582738781068
42
-0.41421356237309503
10
140.63749999999996
20
-175.44582738781065
10
140.63749999999999
20
-162.44582738781062
42
-0.41421356237310542
10
141.13749999999999
20
-161.94582738781065
10
154.13749999999996
20
-161.94582738781062
42
-0.41421356237307422
10
154.63750000000002
20
-162.44582738781062
10
154.63749999999999
20
-175.44582738781065
42
-0.41421356237311585
0
LWPOLYLINE
5
152
100
AcDbEntity
8
0
100
AcDbPolyline
90
8
70
1
43
0.0
10
197.78749999999999
20
-175.44582738781065
10
197.78750000000005
20
-162.44582738781065
42
-0.41421356237303258
10
198.28749999999997
20
-161.94582738781065
10
211.28749999999997
20
-161.94582738781062
42
-0.41421356237315748
10
211.78750000000002
20
-162.44582738781062
10
211.78749999999997
20
-175.44582738781065
42
-0.41421356237315748
10
211.28749999999999
20
-175.94582738781068
10
198.28749999999991
20
-175.94582738781068
42
-0.4142135623730534
0
LWPOLYLINE
5
153
100
AcDbEntity
8
0
100
AcDbPolyline
90
4
70
1
43
0.0
10
3.4249999999999403
20
-172.6937410966172
42
0.99999999999999989
10
6.6249999999999432
20
-172.6937410966172
10
6.6249999999999432
20
-162.19374109661715
42
0.99999999999999989
10
3.4249999999999403
20
-162.1937410966172
0
LWPOLYLINE
5
154
100
AcDbEntity
8
0
100
AcDbPolyline
90
4
70
1
43
0.0
10
22.431249999999959
20
-162.9458273878106
42
0.99999999999999989
10
20.431252174086399
20
-162.94582738781065
10
20.431251087043112
20
-251.14582630076623
42
0.99999998946328783
10
22.431249999999974
20
-251.14582738781064
0
LWPOLYLINE
5
155
100
AcDbEntity
8
0
100
AcDbPolyline
90
8
70
1
43
0.0
10
16.524999999999928
20
-200.54582738781065
42
0.41421356237309503
10
16.024999999999956
20
-200.04582738781065
10
3.0249999999999844
20
-200.04582738781065
42
0.41421356237309503
10
2.5249999999999773
20
-200.54582738781068
10
2.5249999999999773
20
-213.54582738781068
42
0.41421356237309503
10
3.0249999999999488
20
-214.04582738781068
10
16.024999999999956
20
-214.0458273878107
42
0.41421356237311585
10
16.524999999999981
20
-213.54582738781068
0
LWPOLYLINE
5
156
100
AcDbEntity
8
0
100
AcDbPolyline
90
8
70
1
43
0.0
10
3.0249999999999488
20
-180.99582738781064
42
0.41421356237309503
10
2.5249999999999417
20
-181.49582738781061
10
2.5249999999999595
20
-194.49582738781066
42
0.41421356237309503
10
3.0249999999999488
20
-194.99582738781061
10
16.024999999999956
20
-194.99582738781058
42
0.4142135623730534
10
16.524999999999963
20
-194.49582738781066
10
16.524999999999945
20
-181.49582738781061
42
0.41421356237309503
10
16.024999999999956
20
-180.99582738781066
0
LWPOLYLINE
5
157
100
AcDbEntity
8
0
100
AcDbPolyline
90
8
70
1
43
0.0
10
3.0249999999999488
20
-219.09582738781066
10
16.024999999999956
20
-219.09582738781069
42
-0.41421356237307422
10
16.524999999999963
20
-219.59582738781066
10
16.524999999999928
20
-232.59582738781063
42
-0.41421356237309503
10
16.024999999999956
20
-233.0958273878106
10
3.0249999999999488
20
-233.09582738781063
42
-0.41421356237307422
10
2.5249999999999773
20
-232.59582738781063
10
2.5249999999999062
20
-219.59582738781063
42
-0.4142135623730534
0
LWPOLYLINE
5
158
100
AcDbEntity
8
0
100
AcDbPolyline
90
8
70
1
43
0.0
10
192.23750000000001
20
-175.94582738781065
42
0.41421356237307422
10
192.73750000000007
20
-175.44582738781065
10
192.73750000000001
20
-162.44582738781062
42
0.41421356237307422
10
192.23750000000001
20
-161.94582738781065
10
179.23750000000001
20
-161.94582738781065
42
0.4142135623731783
10
178.73749999999995
20
-162.44582738781062
10
178.73749999999995
20
-175.44582738781065
42
0.41421356237313667
10
179.23749999999998
20
-175.94582738781065
0
LWPOLYLINE
5
159
100
AcDbEntity
8
0
100
AcDbPolyline
90
24
70
1
43
0.0
10
257.14999999999998
20
-216.04582738781062
42
0.41421356237309503
10
256.64999999999998
20
-216.54582738781059
10
256.64999999999998
20
-234.09582738781063
42
-0.4142135623730846
10
255.64999999999998
20
-235.09582738781066
10
68.200000000000003
20
-235.0958273878106
42
-0.41421356237310542
10
67.200000000000017
20
-234.09582738781057
10
67.199999999999974
20
-216.54582738781062
42
0.41421356237311585
10
66.699999999999989
20
-216.04582738781062
10
58.675000000000011
20
-216.04582738781062
42
-0.414213562373069
10
57.675000000000018
20
-215.04582738781062
10
57.674999999999976
20
-197.49582738781066
42
0.41421356237309503
10
57.174999999999976
20
-196.99582738781066
10
53.91249999999998
20
-196.99582738781066
42
-0.41421356237309503
10
52.91249999999998
20
-195.99582738781066
10
52.912499999999994
20
-179.99582738781069
42
-0.41421356237309503
10
53.91249999999998
20
-178.99582738781072
10
279.46249999999998
20
-178.99582738781064
42
-0.41421356237309503
10
280.46249999999998
20
-179.99582738781066
10
280.46249999999998
20
-195.99582738781069
42
-0.41421356237310542
10
279.46249999999998
20
-196.99582738781072
10
266.67500000000007
20
-196.99582738781066
42
0.41421356237309503
10
266.17500000000001
20
-197.49582738781066
10
266.17500000000001
20
-215.04582738781065
42
-0.41421356237309503
10
265.17499999999995
20
-216.04582738781068
0
ENDSEC
0
SECTION
2
OBJECTS
0
DICTIONARY
5
C
100
AcDbDictionary
3
ACAD_GROUP
350
D
3
ACAD_MLINESTYLE
350
17
0
DICTIONARY
5
D
100
AcDbDictionary
0
DICTIONARY
5
1A
330
C
100
AcDbDictionary
0
DICTIONARY
5
17
100
AcDbDictionary
0
ENDSEC
0
EOF
