0
SECTION
2
HEADER
9
$INSUNITS
70
4
9
$ACADVER
1
AC1014
9
$HANDSEED
5
FFFF
0
ENDSEC
0
SECTION
2
TABLES
0
TABLE
2
VPORT
5
8
100
AcDbSymbolTable
0
ENDTAB
0
TABLE
2
LTYPE
5
5
100
AcDbSymbolTable
0
LTYPE
5
14
100
AcDbSymbolTableRecord
100
AcDbLinetypeTableRecord
2
BYBLOCK
70
0
0
LTYPE
5
15
100
AcDbSymbolTableRecord
100
AcDbLinetypeTableRecord
2
BYLAYER
70
0
0
ENDTAB
0
TABLE
2
LAYER
5
2
100
AcDbSymbolTable
70
2
0
LAYER
5
50
100
AcDbSymbolTableRecord
100
AcDbLayerTableRecord
2
0
70
0
6
CONTINUOUS
0
ENDTAB
0
TABLE
2
STYLE
5
3
100
AcDbSymbolTable
70
1
0
STYLE
5
11
100
AcDbSymbolTableRecord
100
AcDbTextStyleTableRecord
2
STANDARD
70
0
0
ENDTAB
0
TABLE
2
VIEW
5
6
100
AcDbSymbolTable
70
0
0
ENDTAB
0
TABLE
2
UCS
5
7
100
AcDbSymbolTable
70
0
0
ENDTAB
0
TABLE
2
APPID
5
9
100
AcDbSymbolTable
70
2
0
APPID
5
12
100
AcDbSymbolTableRecord
100
AcDbRegAppTableRecord
2
ACAD
70
0
0
ENDTAB
0
TABLE
2
DIMSTYLE
5
A
100
AcDbSymbolTable
70
1
0
ENDTAB
0
TABLE
2
BLOCK_RECORD
5
1
100
AcDbSymbolTable
70
1
0
BLOCK_RECORD
5
1F
100
AcDbSymbolTableRecord
100
AcDbBlockTableRecord
2
*MODEL_SPACE
0
BLOCK_RECORD
5
1B
100
AcDbSymbolTableRecord
100
AcDbBlockTableRecord
2
*PAPER_SPACE
0
ENDTAB
0
ENDSEC
0
SECTION
2
BLOCKS
0
BLOCK
5
20
100
AcDbEntity
100
AcDbBlockBegin
2
*MODEL_SPACE
0
ENDBLK
5
21
100
AcDbEntity
100
AcDbBlockEnd
0
BLOCK
5
1C
100
AcDbEntity
100
AcDbBlockBegin
2
*PAPER_SPACE
0
ENDBLK
5
1D
100
AcDbEntity
100
AcDbBlockEnd
0
ENDSEC
0
SECTION
2
ENTITIES
0
LWPOLYLINE
5
100
100
AcDbEntity
8
0
100
AcDbPolyline
90
8
70
1
43
0.0
10
200.28124999999994
20
-92.645827387810698
10
200.28124999999994
20
-76.64582738781067
42
-0.41421356237309503
10
200.78124999999997
20
-76.14582738781067
10
208.78125000000006
20
-76.145827387810684
42
-0.41421356237309503
10
209.28125
20
-76.645827387810655
10
209.28125
20
-92.645827387810698
42
-0.41421356237309503
10
208.78125000000006
20
-93.145827387810684
10
200.78124999999997
20
-93.145827387810698
42
-0.41421356237309503
0
LWPOLYLINE
5
101
100
AcDbEntity
8
0
100
AcDbPolyline
90
88
70
1
43
0.0
10
190.46514401978428
20
-91.792273997217322
10
193.19725080097115
20
-94.52438077840398
42
0.19891236737968954
10
193.5508041915644
20
-94.670827387810718
10
220.44289321881351
20
-94.670827387810718
42
-0.19891236737970797
10
220.79644660940676
20
-94.817273997217413
10
225.50355339059331
20
-99.524380778403909
42
0.19891236737970039
10
225.85710678118662
20
-99.670827387810604
10
255.44289321881351
20
-99.670827387810647
42
0.19891236737970147
10
255.79644660940681
20
-99.524380778403966
10
260.50355339059325
20
-94.817273997217413
42
-0.19891236737964485
10
260.85710678118653
20
-94.670827387810718
10
282.06789321881348
20
-94.670827387810704
42
-0.19891236737977641
10
282.42144660940676
20
-94.81727399721737
10
287.12855339059331
20
-99.524380778403952
42
0.19891236737964493
10
287.48210678118659
20
-99.670827387810661
10
317.06789321881348
20
-99.670827387810647
42
0.19891236737980908
10
317.42144660940681
20
-99.524380778403923
10
322.1285533905932
20
-94.817273997217427
42
-0.19891236737979073
10
322.48210678118664
20
-94.670827387810618
10
328.11250000000001
20
-94.670827387810704
42
0.41421356237314705
10
328.61249999999995
20
-94.170827387810675
10
328.61249999999984
20
0.079172612189317704
42
0.41421356237300644
10
328.11249999999995
20
0.57917261218928029
10
308.48160678118654
20
0.57917261218927663
42
-0.19891236737979107
10
308.12805339059315
20
0.72561922159602776
10
303.42094660940654
20
5.4327260027825819
42
0.1989123673796564
10
303.06739321881332
20
5.5791726121893026
10
273.48160678118654
20
5.5791726121892999
42
0.19891236737956761
10
273.12805339059321
20
5.4327260027825446
10
268.42094660940654
20
0.72561922159602543
42
-0.19891236737966089
10
268.06739321881332
20
0.57917261218929073
10
231.99460678118655
20
0.57917261218929317
42
-0.19891236737963597
10
231.64105339059336
20
0.72561922159602354
10
226.93394660940663
20
5.4327260027825908
42
0.19891236737959989
10
226.58039321881347
20
5.5791726121892804
10
196.99460678118655
20
5.5791726121892911
42
0.19891236737965368
10
196.64105339059333
20
5.4327260027825153
10
191.93394660940663
20
0.72561922159599823
42
-0.19891236737964116
10
191.58039321881344
20
0.57917261218929394
10
141.79460678118653
20
0.57917261218930305
42
-0.19891236737964865
10
141.44105339059325
20
0.7256192215960362
10
136.73394660940673
20
5.432726002782573
42
0.19891236737969115
10
136.38039321881348
20
5.5791726121892911
10
106.79460678118653
20
5.5791726121892999
42
0.19891236737967663
10
106.44105339059325
20
5.4327260027825695
10
101.7339466094067
20
0.72561922159601644
42
-0.19891236737963652
10
101.3803932188134
20
0.57917261218930127
10
60.544606781186516
20
0.5791726121893026
42
-0.19891236737965476
10
60.191053390593261
20
0.72561922159601866
10
55.483946609406694
20
5.432726002782573
42
0.19891236737963133
10
55.130393218813438
20
5.5791726121893026
10
25.544606781186534
20
5.5791726121892822
42
0.19891236737966972
10
25.191053390593247
20
5.432726002782557
10
20.483946609406708
20
0.72561922159601666
42
-0.1989123673796595
10
20.130393218813438
20
0.5791726121892905
10
0.49999999999997158
20
0.57917261218928717
42
0.41421356237309503
10
-2.6645352591003757e-14
20
0.079172612189291058
10
-3.5527136788005009e-14
20
-94.170827387810689
42
0.4142135623730534
10
0.49999999999997158
20
-94.670827387810718
10
10.892893218813473
20
-94.670827387810704
42
-0.19891236737968121
10
11.246446609406766
20
-94.817273997217427
10
15.953553390593243
20
-99.524380778403952
42
0.19891236737967269
10
16.307106781186516
20
-99.670827387810647
10
45.89289321881342
20
-99.670827387810647
42
0.19891236737967322
10
46.246446609406718
20
-99.524380778403923
10
50.953553390593278
20
-94.817273997217413
42
-0.19891236737963192
10
51.307106781186533
20
-94.670827387810718
10
72.517893218813441
20
-94.670827387810704
42
-0.19891236737968615
10
72.871446609406718
20
-94.817273997217413
10
77.578553390593257
20
-99.524380778403952
42
0.19891236737967269
10
77.932106781186533
20
-99.670827387810647
10
107.51789321881341
20
-99.670827387810604
42
0.19891236737966617
10
107.87144660940672
20
-99.524380778403923
10
112.57855339059326
20
-94.817273997217413
42
-0.19891236737964496
10
112.93210678118655
20
-94.670827387810704
10
127.88039321881114
20
-94.670827387810704
42
0.19891236737962376
10
128.23394660940437
20
-94.524380778403966
10
130.9660533905932
20
-91.792273997215062
42
-0.19891236737968571
10
131.31960678118656
20
-91.645827387808339
10
147.38125000000022
20
-91.645827387809703
42
0.41421356237313406
10
147.78125000000023
20
-91.245827387809669
10
147.78125000000003
20
-78.645827387810726
42
-0.41421356237310025
10
148.28125000000003
20
-78.145827387810726
10
173.18749999999997
20
-78.145827387810684
42
-0.41421356237312101
10
173.6875
20
-78.64582738781067
10
173.68749999999994
20
-91.145827387810641
42
0.41421356237310542
10
174.1875
20
-91.645827387810655
10
190.11159062919103
20
-91.645827387810627
42
-0.19891236737964485
0
LWPOLYLINE
5
102
100
AcDbEntity
8
0
100
AcDbPolyline
90
8
70
1
43
0.0
10
25.499999999999972
20
-91.645827387810712
10
25.499999999999989
20
-78.645827387810684
42
-0.41421356237310542
10
25.999999999999979
20
-78.14582738781067
10
26.999999999999957
20
-78.14582738781067
42
-0.41421356237308982
10
27.499999999999947
20
-78.645827387810655
10
27.499999999999964
20
-91.645827387810712
42
-0.41421356237313667
10
26.999999999999957
20
-92.145827387810726
10
25.999999999999979
20
-92.145827387810726
42
-0.41421356237309503
0
LWPOLYLINE
5
103
100
AcDbEntity
8
0
100
AcDbPolyline
90
8
70
1
43
0.0
10
254.64999999999998
20
-59.595827387810687
42
0.414213562373069
10
254.15000000000003
20
-59.095827387810722
10
241.15000000000006
20
-59.095827387810722
42
0.41421356237315748
10
240.64999999999998
20
-59.595827387810694
10
240.64999999999998
20
-72.595827387810687
42
0.414213562373069
10
241.15000000000003
20
-73.095827387810687
10
254.14999999999998
20
-73.095827387810672
42
0.41421356237310542
10
254.64999999999998
20
-72.595827387810687
0
LWPOLYLINE
5
104
100
AcDbEntity
8
0
100
AcDbPolyline
90
8
70
1
43
0.0
10
164.95000000000002
20
-59.095827387810729
10
177.94999999999999
20
-59.095827387810687
42
-0.41421356237321988
10
178.44999999999999
20
-59.595827387810694
10
178.44999999999993
20
-72.595827387810687
42
-0.41421356237308982
10
177.94999999999999
20
-73.095827387810687
10
164.95000000000002
20
-73.095827387810729
42
-0.41421356237304818
10
164.44999999999996
20
-72.595827387810687
10
164.44999999999996
20
-59.595827387810672
42
-0.41421356237307944
0
LWPOLYLINE
5
105
100
AcDbEntity
8
0
100
AcDbPolyline
90
8
70
1
43
0.0
10
312.08749999999998
20
-15.4458273878107
42
0.41421356237312623
10
312.58750000000003
20
-15.945827387810725
10
325.58750000000003
20
-15.94582738781067
42
0.41421356237325502
10
326.08749999999998
20
-15.445827387810709
10
326.08750000000015
20
-2.4458273878107128
42
0.41421356237318313
10
325.58750000000003
20
-1.9458273878107
10
312.58749999999992
20
-1.9458273878107684
42
0.41421356237315765
10
312.08749999999998
20
-2.445827387810704
0
LWPOLYLINE
5
106
100
AcDbEntity
8
0
100
AcDbPolyline
90
8
70
1
43
0.0
10
326.08750000000015
20
-78.645827387810684
42
0.4142135623731783
10
325.58750000000003
20
-78.145827387810684
10
312.58749999999998
20
-78.14582738781067
42
0.41421356237315748
10
312.08749999999998
20
-78.645827387810684
10
312.08750000000003
20
-91.645827387810698
42
0.41421356237306384
10
312.58750000000003
20
-92.145827387810741
10
325.58750000000003
20
-92.145827387810613
42
0.4142135623731783
10
326.08749999999998
20
-91.645827387810712
0
LWPOLYLINE
5
107
100
AcDbEntity
8
0
100
AcDbPolyline
90
8
70
1
43
0.0
10
216.54999999999995
20
-59.595827387810694
10
216.55000000000004
20
-72.595827387810687
42
-0.41421356237315748
10
216.05000000000004
20
-73.095827387810644
10
203.05000000000004
20
-73.095827387810729
42
-0.41421356237304818
10
202.54999999999998
20
-72.595827387810687
10
202.54999999999998
20
-59.595827387810694
42
-0.41421356237308982
10
203.05000000000004
20
-59.095827387810743
10
216.04999999999995
20
-59.095827387810722
42
-0.41421356237309503
0
LWPOLYLINE
5
108
100
AcDbEntity
8
0
100
AcDbPolyline
90
8
70
1
43
0.0
10
306.53750000000002
20
-73.095827387810644
10
293.53750000000002
20
-73.095827387810743
42
-0.4142135623730846
10
293.03750000000002
20
-72.595827387810687
10
293.03750000000002
20
-59.595827387810672
42
-0.4142135623730846
10
293.53749999999997
20
-59.095827387810722
10
306.53749999999997
20
-59.095827387810672
42
-0.41421356237304302
10
307.03750000000008
20
-59.595827387810694
10
307.03750000000002
20
-72.595827387810687
42
-0.41421356237315227
0
LWPOLYLINE
5
109
100
AcDbEntity
8
0
100
AcDbPolyline
90
8
70
1
43
0.0
10
280.84375
20
-59.595827387810694
42
0.41421356237321988
10
280.34374999999994
20
-59.095827387810672
10
267.34375
20
-59.095827387810601
42
0.4142135623730378
10
266.84374999999994
20
-59.595827387810672
10
266.84375
20
-72.595827387810687
42
0.41421356237302737
10
267.34374999999994
20
-73.095827387810729
10
280.34375000000006
20
-73.095827387810715
42
0.41421356237306384
10
280.84375
20
-72.595827387810701
0
LWPOLYLINE
5
110
100
AcDbEntity
8
0
100
AcDbPolyline
90
8
70
1
43
0.0
10
159.40000000000001
20
-59.595827387810694
42
0.41421356237312101
10
158.89999999999995
20
-59.095827387810694
10
145.89999999999995
20
-59.095827387810722
42
0.4142135623730846
10
145.39999999999998
20
-59.595827387810694
10
145.39999999999992
20
-72.595827387810687
42
0.41421356237309503
10
145.89999999999998
20
-73.095827387810715
10
158.90000000000003
20
-73.095827387810687
42
0.41421356237308982
10
159.40000000000001
20
-72.595827387810687
0
LWPOLYLINE
5
111
100
AcDbEntity
8
0
100
AcDbPolyline
90
8
70
1
43
0.0
10
107.29999999999997
20
-72.595827387810687
42
0.41421356237311585
10
107.79999999999998
20
-73.095827387810715
10
120.79999999999997
20
-73.095827387810687
42
0.41421356237312101
10
121.29999999999995
20
-72.595827387810687
10
121.29999999999994
20
-59.595827387810694
42
0.41421356237305862
10
120.79999999999995
20
-59.095827387810694
10
107.8
20
-59.095827387810679
42
0.41421356237313667
10
107.29999999999993
20
-59.595827387810694
0
LWPOLYLINE
5
112
100
AcDbEntity
8
0
100
AcDbPolyline
90
8
70
1
43
0.0
10
101.74999999999997
20
-73.095827387810687
10
88.749999999999986
20
-73.095827387810743
42
-0.41421356237310542
10
88.249999999999972
20
-72.595827387810687
10
88.249999999999957
20
-59.595827387810672
42
-0.41421356237312623
10
88.749999999999972
20
-59.095827387810687
10
101.74999999999994
20
-59.095827387810715
42
-0.41421356237310025
10
102.24999999999996
20
-59.595827387810694
10
102.24999999999994
20
-72.595827387810687
42
-0.41421356237310025
0
LWPOLYLINE
5
113
100
AcDbEntity
8
0
100
AcDbPolyline
90
8
70
1
43
0.0
10
235.10000000000002
20
-73.095827387810715
10
222.09999999999997
20
-73.095827387810743
42
-0.41421356237307944
10
221.59999999999997
20
-72.595827387810687
10
221.59999999999997
20
-59.595827387810701
42
-0.41421356237310025
10
222.09999999999994
20
-59.095827387810722
10
235.10000000000002
20
-59.095827387810687
42
-0.41421356237321988
10
235.60000000000002
20
-59.595827387810694
10
235.59999999999999
20
-72.595827387810701
42
-0.4142135623730846
0
LWPOLYLINE
5
114
100
AcDbEntity
8
0
100
AcDbPolyline
90
8
70
1
43
0.0
10
325.58750000000003
20
-54.045827387810697
10
312.58749999999998
20
-54.045827387810739
42
-0.41421356237315227
10
312.08749999999998
20
-53.545827387810704
10
312.08749999999998
20
-40.545827387810704
42
-0.4142135623730846
10
312.58750000000003
20
-40.045827387810689
10
325.58750000000003
20
-40.045827387810711
42
-0.41421356237320428
10
326.08750000000015
20
-40.545827387810725
10
326.08749999999998
20
-53.545827387810732
42
-0.41421356237326151
0
LWPOLYLINE
5
115
100
AcDbEntity
8
0
100
AcDbPolyline
90
4
70
1
43
0.0
10
11.124999999999936
20
-2.1937410966172539
42
0.99999999999999989
10
7.9249999999999332
20
-2.1937410966172544
10
7.9249999999999687
20
-12.693741096617234
42
0.99999999999999989
10
11.124999999999972
20
-12.693741096617234
0
LWPOLYLINE
5
116
100
AcDbEntity
8
0
100
AcDbPolyline
90
8
70
1
43
0.0
10
259.75
20
-92.145827387810684
42
0.41421356237311585
10
260.24999999999994
20
-91.645827387810712
10
260.25000000000006
20
-78.645827387810684
42
0.41421356237312623
10
259.74999999999994
20
-78.14582738781067
10
258.74999999999994
20
-78.145827387810613
42
0.4142135623730222
10
258.25
20
-78.645827387810684
10
258.25
20
-91.645827387810698
42
0.41421356237310542
10
258.74999999999994
20
-92.145827387810698
0
LWPOLYLINE
5
117
100
AcDbEntity
8
0
100
AcDbPolyline
90
8
70
1
43
0.0
10
16.524999999999928
20
-78.645827387810684
42
0.41421356237310542
10
16.024999999999956
20
-78.145827387810684
10
3.0249999999999488
20
-78.145827387810684
42
0.41421356237305862
10
2.5249999999999773
20
-78.64582738781067
10
2.5249999999999595
20
-91.645827387810698
42
0.41421356237306384
10
3.0249999999999488
20
-92.145827387810698
10
16.024999999999956
20
-92.145827387810641
42
0.41421356237309503
10
16.524999999999963
20
-91.645827387810712
0
LWPOLYLINE
5
118
100
AcDbEntity
8
0
100
AcDbPolyline
90
8
70
1
43
0.0
10
139.84999999999999
20
-73.095827387810687
10
126.84999999999999
20
-73.095827387810743
42
-0.41421356237311585
10
126.34999999999997
20
-72.595827387810687
10
126.35000000000002
20
-59.595827387810694
42
-0.41421356237312623
10
126.84999999999997
20
-59.095827387810722
10
139.84999999999991
20
-59.095827387810694
42
-0.41421356237312101
10
140.34999999999999
20
-59.595827387810694
10
140.34999999999997
20
-72.595827387810687
42
-0.41421356237310025
0
LWPOLYLINE
5
119
100
AcDbEntity
8
0
100
AcDbPolyline
90
8
70
1
43
0.0
10
3.0249999999999488
20
-20.995827387810703
10
16.024999999999956
20
-20.995827387810699
42
-0.41421356237308721
10
16.524999999999959
20
-21.495827387810689
10
16.524999999999963
20
-34.495827387810685
42
-0.4142135623730846
10
16.024999999999956
20
-34.995827387810678
10
3.0249999999999488
20
-34.995827387810685
42
-0.41421356237309764
10
2.5249999999999506
20
-34.495827387810685
10
2.5249999999999551
20
-21.495827387810699
42
-0.41421356237309503
0
LWPOLYLINE
5
120
100
AcDbEntity
8
0
100
AcDbPolyline
90
8
70
1
43
0.0
10
125.56249999999997
20
-34.995827387810714
10
112.56249999999997
20
-34.995827387810678
42
-0.41421356237307944
10
112.06249999999997
20
-34.495827387810692
10
112.06249999999997
20
-21.495827387810703
42
-0.41421356237310542
10
112.5625
20
-20.995827387810696
10
125.56249999999999
20
-20.995827387810678
42
-0.41421356237303519
10
126.06249999999996
20
-21.495827387810689
10
126.06249999999997
20
-34.495827387810685
42
-0.41421356237304302
0
LWPOLYLINE
5
121
100
AcDbEntity
8
0
100
AcDbPolyline
90
8
70
1
43
0.0
10
284.67500000000007
20
-21.495827387810706
42
0.41421356237317047
10
284.17500000000007
20
-20.995827387810696
10
283.17499999999995
20
-20.995827387810714
42
0.41421356237316526
10
282.67499999999995
20
-21.495827387810699
10
282.67499999999995
20
-34.495827387810685
42
0.41421356237307422
10
283.17500000000001
20
-34.995827387810714
10
284.17500000000007
20
-34.995827387810714
42
0.41421356237311063
10
284.67500000000007
20
-34.495827387810678
0
LWPOLYLINE
5
122
100
AcDbEntity
8
0
100
AcDbPolyline
90
8
70
1
43
0.0
10
259.41249999999997
20
-21.495827387810692
10
259.41250000000002
20
-34.495827387810678
42
-0.41421356237311063
10
258.91250000000002
20
-34.995827387810714
10
245.91249999999999
20
-34.995827387810728
42
-0.41421356237311585
10
245.41249999999991
20
-34.495827387810685
10
245.41249999999997
20
-21.495827387810689
42
-0.41421356237311846
10
245.91249999999997
20
-20.995827387810678
10
258.91249999999997
20
-20.995827387810678
42
-0.4142135623732251
0
LWPOLYLINE
5
123
100
AcDbEntity
8
0
100
AcDbPolyline
90
8
70
1
43
0.0
10
164.16250000000005
20
-21.495827387810706
42
0.41421356237325374
10
163.66250000000002
20
-20.995827387810682
10
150.66249999999997
20
-20.995827387810703
42
0.41421356237309764
10
150.16249999999997
20
-21.495827387810699
10
150.16249999999997
20
-34.495827387810685
42
0.41421356237310802
10
150.66249999999999
20
-34.995827387810692
10
163.66250000000002
20
-34.995827387810678
42
0.41421356237310025
10
164.16249999999997
20
-34.495827387810692
0
LWPOLYLINE
5
124
100
AcDbEntity
8
0
100
AcDbPolyline
90
8
70
1
43
0.0
10
264.96249999999992
20
-20.995827387810703
42
0.41421356237309764
10
264.46249999999998
20
-21.495827387810699
10
264.46249999999998
20
-34.495827387810671
42
0.41421356237311324
10
264.96249999999998
20
-34.995827387810678
10
277.96249999999998
20
-34.995827387810728
42
0.4142135623730534
10
278.46250000000003
20
-34.495827387810685
10
278.46249999999998
20
-21.495827387810703
42
0.41421356237307422
10
277.96249999999992
20
-20.995827387810696
0
LWPOLYLINE
5
125
100
AcDbEntity
8
0
100
AcDbPolyline
90
8
70
1
43
0.0
10
312.08749999999998
20
-34.495827387810692
10
312.08749999999998
20
-21.495827387810703
42
-0.4142135623730846
10
312.58750000000003
20
-20.995827387810696
10
325.58750000000003
20
-20.995827387810706
42
-0.41421356237318346
10
326.08750000000015
20
-21.495827387810689
10
326.08749999999998
20
-34.495827387810678
42
-0.41421356237326934
10
325.58750000000003
20
-34.995827387810685
10
312.58749999999998
20
-34.995827387810728
42
-0.41421356237308982
0
LWPOLYLINE
5
126
100
AcDbEntity
8
0
100
AcDbPolyline
90
8
70
1
43
0.0
10
226.86250000000001
20
-20.99582738781066
10
239.86249999999995
20
-20.995827387810678
42
-0.41421356237322771
10
240.36249999999995
20
-21.495827387810699
10
240.36249999999998
20
-34.495827387810678
42
-0.41421356237311063
10
239.86249999999998
20
-34.995827387810714
10
226.86249999999998
20
-34.995827387810728
42
-0.41421356237303258
10
226.36250000000004
20
-34.495827387810685
10
226.36250000000004
20
-21.495827387810689
42
-0.41421356237304563
0
LWPOLYLINE
5
127
100
AcDbEntity
8
0
100
AcDbPolyline
90
8
70
1
43
0.0
10
207.02500000000009
20
-40.545827387810704
42
0.41421356237321988
10
206.52499999999998
20
-40.045827387810668
10
193.52499999999998
20
-40.045827387810668
42
0.41421356237306384
10
193.02500000000006
20
-40.545827387810704
10
193.02499999999998
20
-53.545827387810718
42
0.41421356237310542
10
193.52499999999998
20
-54.045827387810739
10
206.52500000000001
20
-54.045827387810739
42
0.41421356237313145
10
207.02500000000003
20
-53.545827387810704
0
LWPOLYLINE
5
128
100
AcDbEntity
8
0
100
AcDbPolyline
90
8
70
1
43
0.0
10
136.375
20
-40.045827387810668
10
149.37499999999997
20
-40.045827387810675
42
-0.41421356237310542
10
149.87499999999997
20
-40.545827387810704
10
149.875
20
-53.545827387810725
42
-0.41421356237308982
10
149.375
20
-54.045827387810704
10
136.375
20
-54.045827387810739
42
-0.4142135623730534
10
135.875
20
-53.545827387810732
10
135.87500000000003
20
-40.545827387810689
42
-0.41421356237307944
0
LWPOLYLINE
5
129
100
AcDbEntity
8
0
100
AcDbPolyline
90
8
70
1
43
0.0
10
154.92500000000001
20
-53.545827387810704
10
154.92500000000001
20
-40.545827387810711
42
-0.414213562373069
10
155.42499999999993
20
-40.045827387810682
10
168.42499999999998
20
-40.045827387810675
42
-0.41421356237312101
10
168.92500000000007
20
-40.545827387810725
10
168.92499999999998
20
-53.545827387810732
42
-0.41421356237309503
10
168.42500000000001
20
-54.045827387810718
10
155.42499999999995
20
-54.04582738781076
42
-0.41421356237305862
0
LWPOLYLINE
5
130
100
AcDbEntity
8
0
100
AcDbPolyline
90
8
70
1
43
0.0
10
29.218749999999964
20
-40.045827387810668
10
46.981249999999974
20
-40.045827387810675
42
-0.41421356237312101
10
47.481249999999982
20
-40.545827387810725
10
47.481249999999974
20
-53.545827387810718
42
-0.4142135623730846
10
46.981249999999974
20
-54.045827387810697
10
29.218749999999964
20
-54.045827387810704
42
-0.41421356237307944
10
28.718749999999957
20
-53.545827387810725
10
28.71874999999995
20
-40.545827387810704
42
-0.41421356237310542
0
LWPOLYLINE
5
131
100
AcDbEntity
8
0
100
AcDbPolyline
90
8
70
1
43
0.0
10
97.775000000000006
20
-53.545827387810732
10
97.774999999999963
20
-40.545827387810711
42
-0.41421356237310025
10
98.27499999999992
20
-40.045827387810704
10
111.27499999999998
20
-40.045827387810675
42
-0.41421356237310542
10
111.77499999999998
20
-40.545827387810704
10
111.77499999999998
20
-53.545827387810704
42
-0.41421356237308982
10
111.27499999999999
20
-54.045827387810725
10
98.274999999999977
20
-54.045827387810739
42
-0.41421356237307422
0
LWPOLYLINE
5
132
100
AcDbEntity
8
0
100
AcDbPolyline
90
8
70
1
43
0.0
10
187.47499999999991
20
-54.045827387810704
10
174.47499999999997
20
-54.045827387810739
42
-0.41421356237310542
10
173.97499999999997
20
-53.545827387810718
10
173.97500000000002
20
-40.545827387810704
42
-0.4142135623730846
10
174.47499999999994
20
-40.045827387810704
10
187.47499999999988
20
-40.045827387810675
42
-0.41421356237314705
10
187.97499999999991
20
-40.545827387810704
10
187.97499999999991
20
-53.545827387810704
42
-0.41421356237313145
0
LWPOLYLINE
5
133
100
AcDbEntity
8
0
100
AcDbPolyline
90
8
70
1
43
0.0
10
130.82499999999996
20
-40.545827387810704
42
0.41421356237310542
10
130.32499999999996
20
-40.045827387810675
10
117.32499999999999
20
-40.045827387810704
42
0.41421356237314183
10
116.82499999999997
20
-40.545827387810725
10
116.82499999999997
20
-53.545827387810732
42
0.41421356237303258
10
117.32499999999996
20
-54.045827387810732
10
130.32499999999999
20
-54.045827387810704
42
0.41421356237308982
10
130.82499999999999
20
-53.545827387810725
0
LWPOLYLINE
5
134
100
AcDbEntity
8
0
100
AcDbPolyline
90
8
70
1
43
0.0
10
73.17499999999994
20
-54.045827387810718
10
60.174999999999983
20
-54.045827387810697
42
-0.41421356237312623
10
59.674999999999983
20
-53.545827387810718
10
59.674999999999969
20
-40.545827387810725
42
-0.41421356237311063
10
60.174999999999983
20
-40.045827387810682
10
73.174999999999969
20
-40.045827387810704
42
-0.41421356237309503
10
73.67499999999994
20
-40.545827387810704
10
73.67499999999994
20
-53.545827387810732
42
-0.41421356237310542
0
LWPOLYLINE
5
135
100
AcDbEntity
8
0
100
AcDbPolyline
90
6
70
1
43
0.0
10
16.099999999999994
20
-96.420827387810704
10
30.16325030024025
20
-96.420827387810718
42
-0.69388866648871372
10
32.036749699759746
20
-96.420827387810718
10
46.099999999999994
20
-96.420827387810704
10
46.099999999999994
20
-97.920827387810633
10
16.099999999999994
20
-97.920827387810633
0
LWPOLYLINE
5
136
100
AcDbEntity
8
0
100
AcDbPolyline
90
6
70
1
43
0.0
10
255.65000000000003
20
-97.920827387810633
10
225.65000000000003
20
-97.920827387810633
10
225.65000000000003
20
-96.420827387810704
10
239.7132503002403
20
-96.420827387810704
42
-0.69388866648872305
10
241.58674969975982
20
-96.420827387810718
10
255.65000000000003
20
-96.420827387810704
0
LWPOLYLINE
5
137
100
AcDbEntity
8
0
100
AcDbPolyline
90
8
70
1
43
0.0
10
92.724999999999966
20
-40.545827387810704
42
0.41421356237310542
10
92.224999999999966
20
-40.045827387810668
10
79.224999999999923
20
-40.045827387810682
42
0.41421356237308982
10
78.724999999999952
20
-40.545827387810725
10
78.724999999999966
20
-53.545827387810725
42
0.41421356237307944
10
79.224999999999966
20
-54.045827387810689
10
92.224999999999966
20
-54.045827387810689
42
0.41421356237306384
10
92.724999999999994
20
-53.545827387810718
0
LWPOLYLINE
5
138
100
AcDbEntity
8
0
100
AcDbPolyline
90
6
70
1
43
0.0
10
317.27500000000003
20
-96.420827387810704
10
317.27500000000009
20
-97.920827387810633
10
287.27500000000009
20
-97.920827387810633
10
287.27500000000009
20
-96.420827387810704
10
301.33825030024025
20
-96.420827387810704
42
-0.69388866648871994
10
303.21174969975976
20
-96.420827387810732
0
LWPOLYLINE
5
139
100
AcDbEntity
8
0
100
AcDbPolyline
90
8
70
1
43
0.0
10
264.17500000000007
20
-40.545827387810704
42
0.4142135623730534
10
263.67500000000001
20
-40.045827387810647
10
250.67499999999995
20
-40.045827387810689
42
0.4142135623730222
10
250.17499999999998
20
-40.545827387810704
10
250.17499999999998
20
-53.545827387810704
42
0.41421356237317308
10
250.67500000000001
20
-54.045827387810739
10
263.67500000000001
20
-54.045827387810725
42
0.41421356237305862
10
264.17500000000007
20
-53.545827387810725
0
LWPOLYLINE
5
140
100
AcDbEntity
8
0
100
AcDbPolyline
90
8
70
1
43
0.0
10
231.12499999999997
20
-53.545827387810725
42
0.41421356237314183
10
231.62499999999997
20
-54.045827387810739
10
244.62500000000006
20
-54.045827387810718
42
0.41421356237304302
10
245.125
20
-53.545827387810718
10
245.12499999999994
20
-40.545827387810725
42
0.41421356237312101
10
244.62500000000003
20
-40.045827387810668
10
231.62499999999994
20
-40.045827387810689
42
0.4142135623730222
10
231.12499999999997
20
-40.545827387810704
0
LWPOLYLINE
5
141
100
AcDbEntity
8
0
100
AcDbPolyline
90
8
70
1
43
0.0
10
212.07499999999999
20
-53.545827387810732
42
0.41421356237307422
10
212.57499999999996
20
-54.045827387810732
10
225.57499999999999
20
-54.045827387810704
42
0.41421356237310542
10
226.07499999999993
20
-53.545827387810718
10
226.07499999999993
20
-40.545827387810711
42
0.41421356237311063
10
225.57500000000002
20
-40.045827387810668
10
212.57499999999993
20
-40.045827387810704
42
0.41421356237310542
10
212.07499999999996
20
-40.545827387810704
0
LWPOLYLINE
5
142
100
AcDbEntity
8
0
100
AcDbPolyline
90
4
70
1
43
0.0
10
20.431251087043183
20
-91.145827387810684
10
20.431251087043183
20
-2.9458273878107373
42
-0.99999999999999989
10
22.431249999999974
20
-2.945828474855066
10
22.431249999999903
20
-91.145827387835823
42
-0.99999945646510113
0
LWPOLYLINE
5
143
100
AcDbEntity
8
0
100
AcDbPolyline
90
6
70
1
43
0.0
10
120.65075030024022
20
2.3291726121892866
42
0.6938886664887286
10
122.52424969975974
20
2.3291726121892968
10
136.58749999999998
20
2.3291726121892999
10
136.58749999999998
20
3.8291726121892964
10
106.58749999999998
20
3.8291726121892964
10
106.58749999999999
20
2.3291726121892999
0
LWPOLYLINE
5
144
100
AcDbEntity
8
0
100
AcDbPolyline
90
6
70
1
43
0.0
10
273.27449999999993
20
2.3291726121892999
10
273.27449999999993
20
3.8291726121892964
10
303.27449999999993
20
3.8291726121892964
10
303.27449999999993
20
2.3291726121892999
10
289.21124969975961
20
2.3291726121892999
42
-0.69388866648870051
10
287.3377503002402
20
2.3291726121893008
0
LINE
5
145
100
AcDbEntity
8
0
100
AcDbLine
10
266.16800000000006
20
-56.820827560624913
30
9.5479180117763462e-14
11
163.73749999999998
21
-56.820827560624977
31
9.3258734068513149e-14
0
ELLIPSE
5
146
100
AcDbEntity
8
0
100
AcDbEllipse
10
163.73750000000001
20
-56.320827560624977
30
9.3258734068513149e-14
11
0.35355339059325414
21
-0.35355339059329366
31
0.0
40
0.99999999999999989
41
2.3561944912438095
42
5.4977871437821584
0
LINE
5
147
100
AcDbEntity
8
0
100
AcDbLine
10
163.73749999947432
20
-55.820827560624984
30
9.3258734068513149e-14
11
257.22500000000002
21
-55.820827540077154
31
9.3258734068513149e-14
0
LINE
5
148
100
AcDbEntity
8
0
100
AcDbLine
10
257.22500000000002
20
-55.820827540077154
30
9.3258734068513149e-14
11
266.16800000000006
21
-55.820827560624942
31
9.5479180117763462e-14
0
ARC
5
149
100
AcDbEntity
8
0
100
AcDbCircle
10
266.16800000000006
20
-56.32082756062492
30
9.5479180117763462e-14
40
0.49999999999998934
210
0
220
0
230
1
100
AcDbArc
50
-90
51
90
0
LWPOLYLINE
5
150
100
AcDbEntity
8
0
100
AcDbPolyline
90
6
70
1
43
0.0
10
210.85075030024015
20
2.3291726121892786
42
0.69388866648872294
10
212.72424969975987
20
2.3291726121892973
10
226.78750000000002
20
2.3291726121892999
10
226.78750000000002
20
3.8291726121892964
10
196.78750000000002
20
3.8291726121893053
10
196.78750000000002
20
2.3291726121892999
0
LWPOLYLINE
5
151
100
AcDbEntity
8
0
100
AcDbPolyline
90
6
70
1
43
0.0
10
55.337499999999977
20
2.3291726121892911
10
41.274249699759736
20
2.3291726121892902
42
-0.69388866648870562
10
39.400750300240219
20
2.3291726121892964
10
25.337499999999977
20
2.3291726121892911
10
25.337499999999977
20
3.8291726121892964
10
55.337499999999977
20
3.8291726121892964
0
LWPOLYLINE
5
152
100
AcDbEntity
8
0
100
AcDbPolyline
90
20
70
1
43
0.0
10
298.82550000000003
20
-16.445827387810706
10
298.82550000000003
20
-15.945827387810693
10
282.19949999999994
20
-15.945827387810693
10
282.19949999999994
20
-16.445827387810702
42
-0.41421356237309936
10
281.4495
20
-17.19582738781067
10
275.69950000000006
20
-17.195827387810706
42
-0.41421356237316359
10
274.94950000000006
20
-16.445827387810677
10
274.94950000000006
20
-15.945827387810693
10
274.48750000000013
20
-15.945827387810725
42
-0.41421356237318868
10
273.98749999999995
20
-15.4458273878107
10
273.98750000000001
20
-2.4458273878107133
42
-0.41421356237307388
10
274.48750000000007
20
-1.9458273878107066
10
306.53749999999997
20
-1.9458273878106891
42
-0.41421356237308449
10
307.03749999999997
20
-2.4458273878107137
10
307.03750000000002
20
-15.4458273878107
42
-0.41421356237316265
10
306.53750000000002
20
-15.945827387810677
10
306.07550000000009
20
-15.945827387810693
10
306.07550000000009
20
-16.445827387810706
42
-0.41421356237309503
10
305.32550000000009
20
-17.195827387810734
10
299.57549999999992
20
-17.195827387810706
42
-0.41421356237311158
0
LWPOLYLINE
5
153
100
AcDbEntity
8
0
100
AcDbPolyline
90
29
70
1
43
0.0
10
288.27500000000003
20
-34.495827387810678
10
288.27499999999998
20
-21.495827387810699
42
-0.41421356237300916
10
288.77499999999992
20
-20.99582738781066
10
301.77499999999992
20
-20.995827387810678
42
-0.41421356237322771
10
302.27499999999992
20
-21.495827387810699
10
302.27499999999998
20
-21.832827387810699
10
304.15625
20
-21.832827387810703
42
-0.414213562373069
10
304.90625
20
-22.582827387810699
10
304.90625
20
-52.4588273878107
42
-0.41421356237309853
10
304.15625
20
-53.208827387810736
10
303.81925000000001
20
-53.2088273878107
10
303.81925000000001
20
-54.545827387810704
42
-0.41421356237309503
10
303.06925000000001
20
-55.295827387810697
10
297.06925000000001
20
-55.295827387810718
42
-0.4142135623730569
10
296.31925000000001
20
-54.545827387810711
10
296.31925000000001
20
-54.045827387810725
10
279.94324999999998
20
-54.045827387810725
10
279.94324999999998
20
-54.545827387810711
42
-0.41421356237310542
10
279.19325000000003
20
-55.295827387810697
10
273.19324999999998
20
-55.295827387810697
42
-0.41421356237309503
10
272.44324999999998
20
-54.545827387810704
10
272.44324999999998
20
-54.045827387810718
10
269.72500000000002
20
-54.045827387810739
42
-0.41421356237312623
10
269.22499999999997
20
-53.545827387810718
10
269.22500000000002
20
-40.545827387810725
42
-0.41421356237314183
10
269.72500000000002
20
-40.045827387810704
10
290.65625
20
-40.045827387810682
10
290.65625
20
-34.995827387810699
10
288.77499999999998
20
-34.995827387810692
42
-0.41421356237305862
0
LWPOLYLINE
5
154
100
AcDbEntity
8
0
100
AcDbPolyline
90
8
70
1
43
0.0
10
255.43749999999994
20
-1.9458273878106978
42
0.41421356237299062
10
254.93750000000006
20
-2.445827387810704
10
254.93750000000006
20
-15.4458273878107
42
0.41421356237308982
10
255.43749999999994
20
-15.94582738781072
10
268.43749999999994
20
-15.945827387810642
42
0.41421356237319906
10
268.9375
20
-15.445827387810709
10
268.93749999999994
20
-2.4458273878107137
42
0.4142135623731053
10
268.43749999999994
20
-1.9458273878106911
0
LWPOLYLINE
5
155
100
AcDbEntity
8
0
100
AcDbPolyline
90
8
70
1
43
0.0
10
160.1875
20
-1.9458273878106911
10
173.18749999999997
20
-1.9458273878107246
42
-0.4142135623731209
10
173.6875
20
-2.4458273878107049
10
173.68749999999991
20
-15.4458273878107
42
-0.41421356237299489
10
173.18749999999997
20
-15.945827387810688
10
160.18749999999997
20
-15.945827387810708
42
-0.41421356237309503
10
159.68749999999997
20
-15.4458273878107
10
159.68749999999994
20
-2.4458273878107133
42
-0.41421356237311585
0
LWPOLYLINE
5
156
100
AcDbEntity
8
0
100
AcDbPolyline
90
8
70
1
43
0.0
10
235.88749999999999
20
-15.445827387810704
42
0.41421356237313928
10
236.38749999999999
20
-15.945827387810713
10
249.38749999999999
20
-15.945827387810688
42
0.41421356237301571
10
249.88749999999996
20
-15.4458273878107
10
249.88749999999996
20
-2.4458273878107049
42
0.4142135623731209
10
249.38749999999996
20
-1.945827387810718
10
236.38749999999993
20
-1.9458273878107157
42
0.4142135623731053
10
235.88749999999999
20
-2.445827387810704
0
LWPOLYLINE
5
157
100
AcDbEntity
8
0
100
AcDbPolyline
90
8
70
1
43
0.0
10
179.23750000000001
20
-1.9458273878106884
42
0.41421356237318835
10
178.73749999999995
20
-2.445827387810704
10
178.73749999999995
20
-15.445827387810704
42
0.41421356237315488
10
179.23749999999998
20
-15.945827387810702
10
192.23750000000001
20
-15.9458273878107
42
0.41421356237307294
10
192.73750000000007
20
-15.4458273878107
10
192.73750000000001
20
-2.4458273878107049
42
0.41421356237306889
10
192.23750000000001
20
-1.9458273878107712
0
LWPOLYLINE
5
158
100
AcDbEntity
8
0
100
AcDbPolyline
90
8
70
1
43
0.0
10
77.9375
20
-15.945827387810706
42
0.41421356237310281
10
78.437499999999986
20
-15.445827387810704
10
78.437499999999972
20
-2.4458273878107133
42
0.41421356237307411
10
77.937499999999972
20
-1.9458273878107091
10
64.937499999999986
20
-1.9458273878107157
42
0.41421356237313134
10
64.437499999999972
20
-2.4458273878107128
10
64.437499999999972
20
-15.445827387810709
42
0.41421356237307422
10
64.937499999999972
20
-15.945827387810693
0
LWPOLYLINE
5
159
100
AcDbEntity
8
0
100
AcDbPolyline
90
8
70
1
43
0.0
10
144.61250000000001
20
-34.995827387810692
42
0.41421356237302737
10
145.11249999999995
20
-34.495827387810692
10
145.11249999999995
20
-21.495827387810703
42
0.41421356237306384
10
144.61249999999995
20
-20.995827387810685
10
131.61249999999998
20
-20.995827387810717
42
0.41421356237311324
10
131.11249999999998
20
-21.495827387810689
10
131.11249999999995
20
-34.495827387810685
42
0.41421356237310542
10
131.61249999999998
20
-34.995827387810692
0
LWPOLYLINE
5
160
100
AcDbEntity
8
0
100
AcDbPolyline
90
8
70
1
43
0.0
10
230.33750000000001
20
-15.94582738781072
10
217.33750000000001
20
-15.945827387810716
42
-0.41421356237305862
10
216.83750000000006
20
-15.4458273878107
10
216.83750000000003
20
-2.4458273878107133
42
-0.4142135623730534
10
217.33750000000001
20
-1.9458273878106707
10
230.33749999999995
20
-1.9458273878107253
42
-0.414213562373063
10
230.83750000000006
20
-2.4458273878107133
10
230.83750000000009
20
-15.445827387810709
42
-0.41421356237310025
0
LWPOLYLINE
5
161
100
AcDbEntity
8
0
100
AcDbPolyline
90
8
70
1
43
0.0
10
183.21250000000003
20
-21.495827387810699
10
183.21249999999998
20
-34.495827387810685
42
-0.41421356237309503
10
182.71250000000003
20
-34.995827387810664
10
169.71250000000003
20
-34.995827387810714
42
-0.4142135623730846
10
169.21250000000001
20
-34.495827387810685
10
169.21249999999992
20
-21.495827387810699
42
-0.41421356237313406
10
169.71249999999995
20
-20.995827387810696
10
182.71250000000003
20
-20.995827387810692
42
-0.41421356237309503
0
LWPOLYLINE
5
162
100
AcDbEntity
8
0
100
AcDbPolyline
90
8
70
1
43
0.0
10
93.012499999999946
20
-34.495827387810685
42
0.41421356237304302
10
93.51249999999996
20
-34.995827387810699
10
106.51250000000002
20
-34.995827387810692
42
0.414213562373069
10
107.01249999999999
20
-34.495827387810692
10
107.01249999999999
20
-21.495827387810699
42
0.4142135623730846
10
106.51250000000002
20
-20.995827387810682
10
93.51249999999996
20
-20.995827387810703
42
0.41421356237313928
10
93.012499999999974
20
-21.495827387810699
0
LWPOLYLINE
5
163
100
AcDbEntity
8
0
100
AcDbPolyline
90
8
70
1
43
0.0
10
54.912499999999973
20
-34.495827387810678
42
0.41421356237310025
10
55.41249999999998
20
-34.995827387810692
10
68.412499999999952
20
-34.995827387810678
42
0.41421356237309243
10
68.912499999999966
20
-34.495827387810671
10
68.912499999999966
20
-21.495827387810689
42
0.41421356237308982
10
68.412499999999952
20
-20.995827387810696
10
55.41249999999998
20
-20.995827387810699
42
0.41421356237308721
10
54.912499999999973
20
-21.495827387810699
0
LWPOLYLINE
5
164
100
AcDbEntity
8
0
100
AcDbPolyline
90
8
70
1
43
0.0
10
154.13749999999996
20
-15.945827387810695
42
0.41421356237309764
10
154.63750000000002
20
-15.445827387810704
10
154.63750000000002
20
-2.4458273878107044
42
0.41421356237307388
10
154.13749999999996
20
-1.9458273878106911
10
141.13749999999999
20
-1.9458273878107157
42
0.41421356237310542
10
140.63749999999996
20
-2.445827387810704
10
140.63749999999996
20
-15.4458273878107
42
0.41421356237309503
10
141.13749999999996
20
-15.945827387810702
0
LWPOLYLINE
5
165
100
AcDbEntity
8
0
100
AcDbPolyline
90
8
70
1
43
0.0
10
188.26249999999993
20
-34.495827387810692
42
0.41421356237308982
10
188.76249999999993
20
-34.995827387810664
10
201.76249999999999
20
-34.995827387810692
42
0.41421356237312623
10
202.26249999999999
20
-34.495827387810685
10
202.26249999999999
20
-21.495827387810692
42
0.41421356237315227
10
201.76249999999996
20
-20.995827387810696
10
188.76249999999996
20
-20.995827387810696
42
0.41421356237300139
10
188.26250000000002
20
-21.495827387810703
0
LWPOLYLINE
5
166
100
AcDbEntity
8
0
100
AcDbPolyline
90
8
70
1
43
0.0
10
221.31249999999994
20
-21.495827387810706
42
0.41421356237323292
10
220.81249999999994
20
-20.995827387810678
10
207.8125
20
-20.995827387810589
42
0.41421356237304563
10
207.31249999999994
20
-21.495827387810689
10
207.31250000000003
20
-34.495827387810685
42
0.41421356237303258
10
207.81249999999997
20
-34.995827387810728
10
220.81249999999997
20
-34.995827387810749
42
0.41421356237310025
10
221.3125
20
-34.495827387810692
0
LWPOLYLINE
5
167
100
AcDbEntity
8
0
100
AcDbPolyline
90
8
70
1
43
0.0
10
198.28749999999997
20
-1.9458273878106978
42
0.41421356237303258
10
197.78750000000005
20
-2.4458273878107128
10
197.78749999999999
20
-15.4458273878107
42
0.41421356237305862
10
198.28749999999991
20
-15.945827387810713
10
211.28749999999999
20
-15.945827387810713
42
0.41421356237314705
10
211.78750000000002
20
-15.4458273878107
10
211.78750000000002
20
-2.4458273878107133
42
0.41421356237315748
10
211.28749999999997
20
-1.9458273878107
0
LWPOLYLINE
5
168
100
AcDbEntity
8
0
100
AcDbPolyline
90
8
70
1
43
0.0
10
45.09999999999998
20
-21.495827387810699
42
0.41421356237308204
10
44.599999999999973
20
-20.995827387810714
10
31.599999999999966
20
-20.995827387810696
42
0.41421356237309503
10
31.099999999999959
20
-21.495827387810699
10
31.099999999999962
20
-34.495827387810685
42
0.41421356237309503
10
31.599999999999966
20
-34.995827387810692
10
44.599999999999973
20
-34.995827387810678
42
0.41421356237307944
10
45.09999999999998
20
-34.495827387810692
0
LWPOLYLINE
5
169
100
AcDbEntity
8
0
100
AcDbPolyline
90
8
70
1
43
0.0
10
73.962500000000006
20
-34.495827387810671
10
73.962499999999977
20
-21.495827387810699
42
-0.41421356237308204
10
74.462499999999977
20
-20.995827387810696
10
87.462500000000006
20
-20.995827387810678
42
-0.41421356237305601
10
87.962500000000006
20
-21.495827387810689
10
87.962499999999977
20
-34.495827387810678
42
-0.414213562373069
10
87.46250000000002
20
-34.995827387810692
10
74.462499999999949
20
-34.995827387810678
42
-0.41421356237308204
0
LWPOLYLINE
5
170
100
AcDbEntity
8
0
100
AcDbPolyline
90
8
70
1
43
0.0
10
50.699999999999967
20
-21.495827387810699
10
50.699999999999967
20
-34.495827387810671
42
-0.41421356237308204
10
50.199999999999974
20
-34.995827387810678
10
49.19999999999996
20
-34.995827387810678
42
-0.41421356237311063
10
48.69999999999996
20
-34.495827387810678
10
48.699999999999974
20
-21.495827387810699
42
-0.41421356237308721
10
49.199999999999982
20
-20.995827387810703
10
50.19999999999996
20
-20.995827387810714
42
-0.41421356237308204
0
LWPOLYLINE
5
171
100
AcDbEntity
8
0
100
AcDbPolyline
90
4
70
1
43
0.0
10
3.4249999999999403
20
-12.693741096617231
42
0.99999999999999989
10
6.6249999999999432
20
-12.69374109661724
10
6.6249999999999432
20
-2.193741096617245
42
0.99999999999999989
10
3.4249999999999403
20
-2.1937410966172632
0
LWPOLYLINE
5
172
100
AcDbEntity
8
0
100
AcDbPolyline
90
8
70
1
43
0.0
10
236.54999999999995
20
-92.145827387810684
42
0.4142135623730534
10
237.04999999999998
20
-91.645827387810712
10
237.0500000000001
20
-78.645827387810684
42
0.41421356237314705
10
236.55000000000001
20
-78.145827387810655
10
235.55000000000004
20
-78.145827387810726
42
0.41421356237310025
10
235.05000000000001
20
-78.64582738781067
10
235.04999999999995
20
-91.645827387810712
42
0.41421356237301177
10
235.55000000000001
20
-92.145827387810769
0
LWPOLYLINE
5
173
100
AcDbEntity
8
0
100
AcDbPolyline
90
4
70
1
43
0.0
10
12.424999999999962
20
-12.693741096617217
10
12.424999999999962
20
-2.2500000223517458
42
-0.99999999999999989
10
15.624999999999964
20
-2.250000022351728
10
15.624999999999964
20
-12.69374109661724
42
-0.99999999999999989
0
LWPOLYLINE
5
174
100
AcDbEntity
8
0
100
AcDbPolyline
90
6
70
1
43
0.0
10
77.725000000000009
20
-96.420827387810704
10
91.788250300240264
20
-96.420827387810704
42
-0.69388866648870762
10
93.661749699759753
20
-96.420827387810704
10
107.72499999999999
20
-96.420827387810704
10
107.72500000000001
20
-97.920827387810633
10
77.725000000000009
20
-97.920827387810633
0
LWPOLYLINE
5
175
100
AcDbEntity
8
0
100
AcDbPolyline
90
8
70
1
43
0.0
10
2.5249999999999417
20
-53.545827387810718
10
2.5249999999999684
20
-40.545827387810711
42
-0.41421356237308982
10
3.0249999999999844
20
-40.045827387810704
10
16.024999999999956
20
-40.045827387810704
42
-0.41421356237308982
10
16.524999999999935
20
-40.545827387810675
10
16.524999999999981
20
-53.545827387810725
42
-0.41421356237311063
10
16.024999999999956
20
-54.045827387810704
10
3.0249999999999488
20
-54.045827387810704
42
-0.4142135623730846
0
LWPOLYLINE
5
176
100
AcDbEntity
8
0
100
AcDbPolyline
90
8
70
1
43
0.0
10
3.0249999999999488
20
-59.095827387810701
42
0.41421356237308982
10
2.5249999999999417
20
-59.595827387810694
10
2.5249999999999773
20
-72.595827387810701
42
0.41421356237304302
10
3.0249999999999133
20
-73.095827387810687
10
16.024999999999956
20
-73.095827387810658
42
0.41421356237309503
10
16.524999999999945
20
-72.595827387810687
10
16.524999999999963
20
-59.595827387810694
42
0.41421356237307944
10
16.024999999999956
20
-59.095827387810715
0
LWPOLYLINE
5
177
100
AcDbEntity
8
0
100
AcDbPolyline
90
8
70
1
43
0.0
10
75.124999999999957
20
-78.645827387810684
42
0.41421356237311585
10
74.624999999999972
20
-78.145827387810684
10
73.624999999999972
20
-78.145827387810655
42
0.41421356237306384
10
73.124999999999972
20
-78.645827387810684
10
73.124999999999972
20
-91.645827387810712
42
0.41421356237306384
10
73.624999999999986
20
-92.145827387810741
10
74.624999999999986
20
-92.145827387810726
42
0.41421356237313667
10
75.125
20
-91.645827387810712
0
LWPOLYLINE
5
178
100
AcDbEntity
8
0
100
AcDbPolyline
90
8
70
1
43
0.0
10
197.00000000000003
20
-73.095827387810644
10
184
20
-73.095827387810729
42
-0.41421356237319906
10
183.49999999999997
20
-72.595827387810687
10
183.5
20
-59.595827387810672
42
-0.4142135623730846
10
184
20
-59.095827387810722
10
196.99999999999994
20
-59.095827387810722
42
-0.41421356237309503
10
197.49999999999994
20
-59.595827387810694
10
197.50000000000003
20
-72.595827387810687
42
-0.41421356237315227
0
LWPOLYLINE
5
179
100
AcDbEntity
8
0
100
AcDbPolyline
90
8
70
1
43
0.0
10
102.53749999999997
20
-15.4458273878107
42
0.41421356237309503
10
103.03749999999997
20
-15.945827387810706
10
116.03749999999994
20
-15.945827387810706
42
0.41421356237305862
10
116.53749999999994
20
-15.4458273878107
10
116.53749999999995
20
-2.4458273878107137
42
0.41421356237305845
10
116.03749999999994
20
-1.9458273878106911
10
103.03749999999999
20
-1.9458273878107157
42
0.41421356237313145
10
102.53749999999995
20
-2.4458273878107128
0
LWPOLYLINE
5
180
100
AcDbEntity
8
0
100
AcDbPolyline
90
8
70
1
43
0.0
10
325.58750000000003
20
-73.095827387810573
42
0.41421356237325629
10
326.08749999999992
20
-72.595827387810687
10
326.08749999999998
20
-59.595827387810694
42
0.4142135623731783
10
325.58749999999986
20
-59.095827387810687
10
312.58749999999992
20
-59.095827387810722
42
0.41421356237310025
10
312.08749999999998
20
-59.595827387810701
10
312.08749999999998
20
-72.595827387810687
42
0.41421356237307944
10
312.58749999999998
20
-73.095827387810729
0
LWPOLYLINE
5
181
100
AcDbEntity
8
0
100
AcDbPolyline
90
8
70
1
43
0.0
10
48.69999999999996
20
-91.645827387810712
10
48.699999999999974
20
-78.645827387810684
42
-0.41421356237308982
10
49.199999999999982
20
-78.145827387810684
10
50.19999999999996
20
-78.145827387810684
42
-0.41421356237308982
10
50.699999999999967
20
-78.645827387810684
10
50.699999999999967
20
-91.645827387810712
42
-0.41421356237309503
10
50.19999999999996
20
-92.145827387810641
10
49.199999999999982
20
-92.145827387810698
42
-0.41421356237307422
0
LWPOLYLINE
5
182
100
AcDbEntity
8
0
100
AcDbPolyline
90
8
70
1
43
0.0
10
98.32499999999996
20
-78.64582738781067
10
98.324999999999989
20
-91.645827387810712
42
-0.41421356237312623
10
97.824999999999974
20
-92.145827387810755
10
96.824999999999974
20
-92.145827387810726
42
-0.41421356237313667
10
96.32499999999996
20
-91.645827387810712
10
96.324999999999989
20
-78.645827387810684
42
-0.41421356237310542
10
96.824999999999989
20
-78.145827387810684
10
97.824999999999989
20
-78.145827387810684
42
-0.41421356237305862
0
LWPOLYLINE
5
183
100
AcDbEntity
8
0
100
AcDbPolyline
90
8
70
1
43
0.0
10
45.88749999999996
20
-1.9458273878106911
10
58.887499999999982
20
-1.9458273878107246
42
-0.4142135623731053
10
59.387499999999953
20
-2.4458273878107137
10
59.38749999999996
20
-15.4458273878107
42
-0.41421356237310542
10
58.887499999999982
20
-15.9458273878107
10
45.887499999999974
20
-15.94582738781069
42
-0.41421356237307944
10
45.387499999999967
20
-15.445827387810709
10
45.387499999999946
20
-2.4458273878107133
42
-0.4142135623730846
0
LWPOLYLINE
5
184
100
AcDbEntity
8
0
100
AcDbPolyline
90
8
70
1
43
0.0
10
83.487499999999983
20
-15.445827387810709
42
0.41421356237307944
10
83.987499999999912
20
-15.945827387810706
10
96.987499999999969
20
-15.945827387810706
42
0.41421356237309503
10
97.487499999999983
20
-15.4458273878107
10
97.487499999999983
20
-2.4458273878107044
42
0.41421356237308982
10
96.987499999999969
20
-1.9458273878107
10
83.98749999999994
20
-1.9458273878106978
42
0.4142135623730947
10
83.487499999999955
20
-2.4458273878107128
0
LWPOLYLINE
5
185
100
AcDbEntity
8
0
100
AcDbPolyline
90
20
70
1
43
0.0
10
64.149999999999977
20
-59.595827387810722
42
0.41421356237311063
10
63.649999999999984
20
-59.095827387810694
10
29.218749999999964
20
-59.095827387810722
42
0.4142135623730846
10
28.718749999999957
20
-59.595827387810701
10
28.718749999999957
20
-72.595827387810701
42
0.4142135623730846
10
29.218749999999947
20
-73.095827387810701
10
29.555749999999961
20
-73.095827387810701
10
29.555749999999961
20
-73.595827387810672
42
0.41421356237309159
10
30.305749999999954
20
-74.345827387810658
10
36.305749999999946
20
-74.345827387810687
42
0.41421356237307422
10
37.055749999999975
20
-73.595827387810658
10
37.055749999999975
20
-73.095827387810687
10
53.431749999999987
20
-73.095827387810687
10
53.431749999999965
20
-73.595827387810687
42
0.41421356237308815
10
54.18174999999998
20
-74.345827387810687
10
60.181749999999958
20
-74.345827387810701
42
0.41421356237306733
10
60.931749999999987
20
-73.595827387810658
10
60.931749999999987
20
-73.095827387810687
10
63.649999999999984
20
-73.095827387810729
42
0.41421356237307422
10
64.149999999999977
20
-72.595827387810715
0
LWPOLYLINE
5
186
100
AcDbEntity
8
0
100
AcDbPolyline
90
5
70
1
43
0.0
10
57.681749999999958
20
-55.820827560624991
10
66.724999999999994
20
-55.820827540077289
10
160.21249999999998
20
-55.820827540077225
42
-0.99999999999999989
10
160.21250000000006
20
-56.820827540077204
10
57.681749999999958
20
-56.820827560624956
42
-0.99999999999999989
0
LWPOLYLINE
5
187
100
AcDbEntity
8
0
100
AcDbPolyline
90
8
70
1
43
0.0
10
135.08749999999995
20
-15.945827387810713
10
122.08749999999998
20
-15.945827387810708
42
-0.41421356237309503
10
121.58749999999998
20
-15.4458273878107
10
121.58749999999996
20
-2.4458273878107044
42
-0.41421356237310542
10
122.08749999999996
20
-1.9458273878107157
10
135.08749999999998
20
-1.945827387810698
42
-0.41421356237304807
10
135.58749999999998
20
-2.4458273878107137
10
135.58749999999998
20
-15.4458273878107
42
-0.41421356237305862
0
LWPOLYLINE
5
188
100
AcDbEntity
8
0
100
AcDbPolyline
90
8
70
1
43
0.0
10
40.337499999999977
20
-2.4458273878107044
42
0.41421356237309503
10
39.83749999999997
20
-1.9458273878106978
10
26.837499999999999
20
-1.9458273878107066
42
0.41421356237310542
10
26.337499999999991
20
-2.445827387810704
10
26.337499999999963
20
-15.4458273878107
42
0.41421356237309503
10
26.837499999999963
20
-15.945827387810693
10
39.83749999999997
20
-15.945827387810688
42
0.4142135623730846
10
40.337499999999977
20
-15.4458273878107
0
LWPOLYLINE
5
189
100
AcDbEntity
8
0
100
AcDbPolyline
90
8
70
1
43
0.0
10
83.19999999999996
20
-59.595827387810694
42
0.41421356237310542
10
82.699999999999974
20
-59.095827387810722
10
69.700000000000017
20
-59.095827387810751
42
0.41421356237312623
10
69.200000000000031
20
-59.595827387810722
10
69.19999999999996
20
-72.595827387810687
42
0.41421356237313667
10
69.69999999999996
20
-73.095827387810658
10
82.69999999999996
20
-73.095827387810687
42
0.41421356237308982
10
83.19999999999996
20
-72.595827387810687
0
LWPOLYLINE
5
190
100
AcDbEntity
8
0
100
AcDbPolyline
90
8
70
1
43
0.0
10
287.48749999999995
20
-92.145827387810741
10
274.48750000000013
20
-92.145827387810684
42
-0.41421356237304302
10
273.98750000000007
20
-91.645827387810698
10
273.98749999999995
20
-78.64582738781067
42
-0.41421356237312101
10
274.48750000000007
20
-78.145827387810684
10
287.48750000000001
20
-78.145827387810655
42
-0.41421356237314183
10
287.98750000000007
20
-78.64582738781067
10
287.98749999999995
20
-91.645827387810712
42
-0.41421356237313667
0
LWPOLYLINE
5
191
100
AcDbEntity
8
0
100
AcDbPolyline
90
8
70
1
43
0.0
10
306.53749999999997
20
-92.145827387810741
10
293.53749999999997
20
-92.145827387810726
42
-0.41421356237294937
10
293.03750000000002
20
-91.645827387810712
10
293.03749999999997
20
-78.64582738781067
42
-0.41421356237311063
10
293.53749999999997
20
-78.145827387810641
10
306.53749999999997
20
-78.145827387810684
42
-0.41421356237318868
10
307.03750000000008
20
-78.645827387810684
10
307.03750000000002
20
-91.645827387810712
42
-0.41421356237315748
0
LWPOLYLINE
5
192
100
AcDbEntity
8
0
100
AcDbPolyline
90
8
70
1
43
0.0
10
29.218750000000036
20
-78.145827387810726
10
44.599999999999973
20
-78.145827387810684
42
-0.41421356237309503
10
45.099999999999973
20
-78.645827387810684
10
45.100000000000037
20
-91.645827387810712
42
-0.41421356237311585
10
44.600000000000044
20
-92.145827387810741
10
29.218750000000053
20
-92.145827387810698
42
-0.41421356237307422
10
28.718750000000046
20
-91.645827387810698
10
28.718750000000021
20
-78.645827387810726
42
-0.41421356237310542
0
LWPOLYLINE
5
193
100
AcDbEntity
8
0
100
AcDbPolyline
90
8
70
1
43
0.0
10
53.031250000000028
20
-78.145827387810726
10
68.412499999999952
20
-78.145827387810684
42
-0.4142135623730846
10
68.912499999999966
20
-78.645827387810684
10
68.912500000000051
20
-91.645827387810712
42
-0.41421356237304302
10
68.412500000000037
20
-92.145827387810741
10
53.031250000000156
20
-92.145827387810726
42
-0.41421356237307422
10
52.531250000000114
20
-91.645827387810712
10
52.531250000000043
20
-78.645827387810726
42
-0.4142135623730846
0
LWPOLYLINE
5
194
100
AcDbEntity
8
0
100
AcDbPolyline
90
8
70
1
43
0.0
10
76.843750000000028
20
-78.145827387810726
10
92.224999999999966
20
-78.145827387810684
42
-0.41421356237311585
10
92.724999999999994
20
-78.645827387810684
10
92.725000000000051
20
-91.645827387810755
42
-0.41421356237309503
10
92.225000000000037
20
-92.145827387810755
10
76.843749999999815
20
-92.145827387810698
42
-0.4142135623730534
10
76.343749999999829
20
-91.645827387810712
10
76.343750000000028
20
-78.645827387810726
42
-0.41421356237308982
0
LWPOLYLINE
5
195
100
AcDbEntity
8
0
100
AcDbPolyline
90
8
70
1
43
0.0
10
116.53750000000004
20
-83.145827387810684
10
144.28125
20
-83.145827387810684
42
-0.41421356237309503
10
145.28125000000003
20
-84.145827387810698
10
145.28125000000003
20
-86.14582738781067
42
-0.41421356237309503
10
144.28125
20
-87.145827387810684
10
116.53750000000004
20
-87.14582738781067
42
-0.41421356237310025
10
115.53750000000005
20
-86.145827387810684
10
115.53750000000002
20
-84.145827387810698
42
-0.41421356237310542
0
LWPOLYLINE
5
196
100
AcDbEntity
8
0
100
AcDbPolyline
90
8
70
1
43
0.0
10
176.18750000000003
20
-86.145827387810741
10
176.18750000000003
20
-84.14582738781067
42
-0.41421356237308982
10
177.18750000000003
20
-83.145827387810684
10
197.78125000000003
20
-83.145827387810684
42
-0.41421356237309503
10
198.78125000000006
20
-84.145827387810698
10
198.78125000000006
20
-86.145827387810741
42
-0.41421356237308982
10
197.78125000000003
20
-87.145827387810741
10
177.18750000000006
20
-87.145827387810741
42
-0.41421356237308982
0
LWPOLYLINE
5
197
100
AcDbEntity
8
0
100
AcDbPolyline
90
8
70
1
43
0.0
10
100.78125000000003
20
-76.145827387810726
10
113.53750000000005
20
-76.145827387810712
42
-0.41421356237309503
10
114.03750000000005
20
-76.645827387810726
10
114.03750000000004
20
-92.645827387810726
42
-0.41421356237309503
10
113.53750000000005
20
-93.145827387810712
10
100.78125000000003
20
-93.145827387810726
42
-0.41421356237309503
10
100.28125000000003
20
-92.645827387810726
10
100.28125000000003
20
-76.645827387810726
42
-0.41421356237309503
0
LWPOLYLINE
5
198
100
AcDbEntity
8
0
100
AcDbPolyline
90
16
70
1
43
0.0
10
232.71875
20
-92.145827387810741
10
228.95749999999992
20
-92.145827387811551
42
0.41421356237303258
10
228.45750000000004
20
-92.645827387811565
10
228.4575000000001
20
-92.765827387810717
42
-0.41421356237307422
10
227.9575000000001
20
-93.265827387810731
10
219.71750000000009
20
-93.265827387810717
42
-0.41421356237311585
10
219.21750000000003
20
-92.765827387810717
10
219.21750000000003
20
-76.525827387810693
42
-0.41421356237313667
10
219.71750000000003
20
-76.025827387810693
10
227.95750000000004
20
-76.025827387810665
42
-0.41421356237304818
10
228.45750000000004
20
-76.525827387810693
10
228.45750000000007
20
-77.645827387810755
42
0.41421356237307944
10
228.95750000000007
20
-78.145827387810741
10
232.71875
20
-78.145827387810741
42
-0.41421356237314183
10
233.21875000000006
20
-78.645827387810726
10
233.21875000000006
20
-91.645827387810712
42
-0.41421356237301177
0
LWPOLYLINE
5
199
100
AcDbEntity
8
0
100
AcDbPolyline
90
8
70
1
43
0.0
10
256.53125
20
-92.145827387810741
10
241.15000000000003
20
-92.145827387810726
42
-0.41421356237301177
10
240.65000000000001
20
-91.645827387810712
10
240.65000000000009
20
-78.645827387810726
42
-0.4142135623730846
10
241.15000000000003
20
-78.145827387810726
10
256.53125000000074
20
-78.145827387810684
42
-0.4142135623730846
10
257.0312500000008
20
-78.64582738781067
10
257.03125000000011
20
-91.645827387810712
42
-0.41421356237310542
0
ENDSEC
0
SECTION
2
OBJECTS
0
DICTIONARY
5
C
100
AcDbDictionary
3
ACAD_GROUP
350
D
3
ACAD_MLINESTYLE
350
17
0
DICTIONARY
5
D
100
AcDbDictionary
0
DICTIONARY
5
1A
330
C
100
AcDbDictionary
0
DICTIONARY
5
17
100
AcDbDictionary
0
ENDSEC
0
EOF
