0
SECTION
2
HEADER
9
$INSUNITS
70
4
9
$ACADVER
1
AC1014
9
$HANDSEED
5
FFFF
0
ENDSEC
0
SECTION
2
TABLES
0
TABLE
2
VPORT
5
8
100
AcDbSymbolTable
0
ENDTAB
0
TABLE
2
LTYPE
5
5
100
AcDbSymbolTable
0
LTYPE
5
14
100
AcDbSymbolTableRecord
100
AcDbLinetypeTableRecord
2
BYBLOCK
70
0
0
LTYPE
5
15
100
AcDbSymbolTableRecord
100
AcDbLinetypeTableRecord
2
BYLAYER
70
0
0
ENDTAB
0
TABLE
2
LAYER
5
2
100
AcDbSymbolTable
70
2
0
LAYER
5
50
100
AcDbSymbolTableRecord
100
AcDbLayerTableRecord
2
0
70
0
6
CONTINUOUS
0
ENDTAB
0
TABLE
2
STYLE
5
3
100
AcDbSymbolTable
70
1
0
STYLE
5
11
100
AcDbSymbolTableRecord
100
AcDbTextStyleTableRecord
2
STANDARD
70
0
0
ENDTAB
0
TABLE
2
VIEW
5
6
100
AcDbSymbolTable
70
0
0
ENDTAB
0
TABLE
2
UCS
5
7
100
AcDbSymbolTable
70
0
0
ENDTAB
0
TABLE
2
APPID
5
9
100
AcDbSymbolTable
70
2
0
APPID
5
12
100
AcDbSymbolTableRecord
100
AcDbRegAppTableRecord
2
ACAD
70
0
0
ENDTAB
0
TABLE
2
DIMSTYLE
5
A
100
AcDbSymbolTable
70
1
0
ENDTAB
0
TABLE
2
BLOCK_RECORD
5
1
100
AcDbSymbolTable
70
1
0
BLOCK_RECORD
5
1F
100
AcDbSymbolTableRecord
100
AcDbBlockTableRecord
2
*MODEL_SPACE
0
BLOCK_RECORD
5
1B
100
AcDbSymbolTableRecord
100
AcDbBlockTableRecord
2
*PAPER_SPACE
0
ENDTAB
0
ENDSEC
0
SECTION
2
BLOCKS
0
BLOCK
5
20
100
AcDbEntity
100
AcDbBlockBegin
2
*MODEL_SPACE
0
ENDBLK
5
21
100
AcDbEntity
100
AcDbBlockEnd
0
BLOCK
5
1C
100
AcDbEntity
100
AcDbBlockBegin
2
*PAPER_SPACE
0
ENDBLK
5
1D
100
AcDbEntity
100
AcDbBlockEnd
0
ENDSEC
0
SECTION
2
ENTITIES
0
LWPOLYLINE
5
100
100
AcDbEntity
8
0
100
AcDbPolyline
90
8
70
1
43
0.0
10
200.28124999999994
20
67.354172612189302
10
200.28124999999994
20
83.354172612189345
42
-0.41421356237309503
10
200.78124999999997
20
83.85417261218933
10
208.78125000000006
20
83.854172612189316
42
-0.41421356237309503
10
209.28125
20
83.354172612189345
10
209.28125000000006
20
67.354172612189302
42
-0.41421356237309503
10
208.78125000000006
20
66.854172612189302
10
200.78124999999997
20
66.854172612189302
42
-0.41421356237309503
0
LWPOLYLINE
5
101
100
AcDbEntity
8
0
100
AcDbPolyline
90
88
70
1
43
0.0
10
190.4651440197843
20
68.207726002782636
10
193.19725080097115
20
65.47561922159602
42
0.19891236737969606
10
193.5508041915644
20
65.329172612189282
10
220.44289321881351
20
65.329172612189282
42
-0.19891236737969817
10
220.79644660940676
20
65.182726002782601
10
225.50355339059331
20
60.475619221596055
42
0.19891236737969059
10
225.85710678118662
20
60.329172612189367
10
255.44289321881351
20
60.329172612189332
42
0.19891236737969828
10
255.79644660940681
20
60.47561922159602
10
260.50355339059325
20
65.182726002782573
42
-0.19891236737964171
10
260.85710678118653
20
65.329172612189282
10
282.06789321881348
20
65.329172612189282
42
-0.19891236737977319
10
282.42144660940676
20
65.182726002782616
10
287.12855339059331
20
60.475619221596034
42
0.19891236737964169
10
287.48210678118659
20
60.329172612189311
10
317.06789321881348
20
60.329172612189332
42
0.1989123673798058
10
317.42144660940681
20
60.475619221596048
10
322.1285533905932
20
65.182726002782545
42
-0.19891236737978737
10
322.48210678118664
20
65.329172612189353
10
328.11250000000001
20
65.329172612189296
42
0.41421356237314705
10
328.61249999999995
20
65.829172612189311
10
328.61249999999984
20
160.07917261218927
42
0.41421356237301177
10
328.11249999999995
20
160.57917261218927
10
308.48160678118654
20
160.57917261218927
42
-0.19891236737978404
10
308.12805339059315
20
160.72561922159599
10
303.42094660940654
20
165.43272600278254
42
0.19891236737965801
10
303.06739321881332
20
165.57917261218927
10
273.48160678118654
20
165.57917261218932
42
0.19891236737955578
10
273.12805339059321
20
165.43272600278254
10
268.42094660940654
20
160.72561922159605
42
-0.19891236737965268
10
268.06739321881332
20
160.5791726121893
10
231.99460678118655
20
160.5791726121893
42
-0.19891236737963411
10
231.64105339059336
20
160.72561922159599
10
226.93394660940663
20
165.43272600278254
42
0.19891236737960805
10
226.58039321881347
20
165.5791726121893
10
196.99460678118655
20
165.57917261218932
42
0.19891236737963411
10
196.64105339059333
20
165.43272600278254
10
191.93394660940663
20
160.72561922159599
42
-0.19891236737965257
10
191.58039321881344
20
160.5791726121893
10
141.79460678118653
20
160.57917261218932
42
-0.19891236737965523
10
141.44105339059328
20
160.72561922159605
10
136.73394660940673
20
165.43272600278254
42
0.19891236737968954
10
136.38039321881348
20
165.57917261218927
10
106.79460678118656
20
165.57917261218932
42
0.19891236737968954
10
106.44105339059325
20
165.43272600278249
10
101.7339466094067
20
160.72561922159599
42
-0.19891236737963192
10
101.3803932188134
20
160.5791726121893
10
60.544606781186516
20
160.5791726121893
42
-0.19891236737965801
10
60.191053390593261
20
160.72561922159599
10
55.483946609406694
20
165.43272600278254
42
0.1989123673796265
10
55.130393218813438
20
165.57917261218927
10
25.544606781186534
20
165.57917261218927
42
0.19891236737968196
10
25.191053390593257
20
165.43272600278249
10
20.483946609406701
20
160.72561922159599
42
-0.19891236737966447
10
20.130393218813438
20
160.5791726121893
10
0.49999999999997158
20
160.5791726121893
42
0.41421356237309503
10
-3.5596525727044082e-14
20
160.07917261218927
10
-3.5527136788005009e-14
20
65.829172612189296
42
0.4142135623730534
10
0.49999999999997158
20
65.329172612189282
10
10.892893218813473
20
65.329172612189282
42
-0.19891236737967946
10
11.246446609406762
20
65.182726002782545
10
15.953553390593243
20
60.475619221596034
42
0.19891236737966941
10
16.307106781186516
20
60.329172612189339
10
45.89289321881342
20
60.329172612189332
42
0.19891236737966669
10
46.246446609406718
20
60.475619221596048
10
50.953553390593278
20
65.182726002782573
42
-0.19891236737962856
10
51.307106781186533
20
65.329172612189268
10
72.517893218813441
20
65.329172612189296
42
-0.19891236737967982
10
72.871446609406718
20
65.182726002782587
10
77.578553390593257
20
60.475619221596034
42
0.19891236737966941
10
77.932106781186533
20
60.329172612189339
10
107.51789321881341
20
60.329172612189367
42
0.19891236737966617
10
107.87144660940672
20
60.475619221596062
10
112.57855339059326
20
65.182726002782573
42
-0.19891236737964171
10
112.93210678118655
20
65.329172612189296
10
127.88039321881114
20
65.329172612189296
42
0.19891236737962381
10
128.23394660940437
20
65.47561922159602
10
130.96605339059323
20
68.207726002784923
42
-0.19891236737967924
10
131.31960678118656
20
68.354172612191647
10
147.38125000000022
20
68.354172612190283
42
0.41421356237313406
10
147.78125000000023
20
68.754172612190288
10
147.78125000000003
20
81.354172612189274
42
-0.41421356237309503
10
148.28125000000003
20
81.854172612189274
10
173.18749999999994
20
81.854172612189302
42
-0.41421356237312623
10
173.6875
20
81.354172612189316
10
173.68749999999994
20
68.854172612189345
42
0.41421356237310542
10
174.1875
20
68.354172612189345
10
190.11159062919106
20
68.354172612189345
42
-0.19891236737964829
0
LWPOLYLINE
5
102
100
AcDbEntity
8
0
100
AcDbPolyline
90
6
70
1
43
0.0
10
303.21174969975976
20
63.579172612189268
42
0.69388866648870773
10
301.33825030024025
20
63.579172612189289
10
287.27500000000009
20
63.579172612189296
10
287.27500000000009
20
62.079172612189339
10
317.27500000000009
20
62.079172612189339
10
317.27500000000003
20
63.579172612189296
0
LWPOLYLINE
5
103
100
AcDbEntity
8
0
100
AcDbPolyline
90
8
70
1
43
0.0
10
176.18750000000003
20
73.854172612189245
10
176.18750000000003
20
75.854172612189316
42
-0.41421356237308982
10
177.18750000000003
20
76.854172612189302
10
197.78125000000003
20
76.854172612189316
42
-0.41421356237308982
10
198.78125000000006
20
75.854172612189316
10
198.78125000000006
20
73.854172612189245
42
-0.41421356237308982
10
197.78125000000003
20
72.854172612189259
10
177.18750000000006
20
72.854172612189245
42
-0.41421356237308982
0
LWPOLYLINE
5
104
100
AcDbEntity
8
0
100
AcDbPolyline
90
6
70
1
43
0.0
10
225.65000000000003
20
63.579172612189296
10
239.71325030024025
20
63.579172612189296
42
-0.69388866648871073
10
241.58674969975982
20
63.579172612189282
10
255.65000000000003
20
63.579172612189296
10
255.65000000000003
20
62.079172612189339
10
225.65000000000003
20
62.079172612189339
0
LWPOLYLINE
5
105
100
AcDbEntity
8
0
100
AcDbPolyline
90
8
70
1
43
0.0
10
326.08750000000015
20
157.55417261218926
10
326.08749999999998
20
144.55417261218929
42
-0.41421356237319906
10
325.58750000000009
20
144.05417261218932
10
312.58750000000003
20
144.05417261218926
42
-0.41421356237313667
10
312.08749999999998
20
144.55417261218932
10
312.08749999999998
20
157.55417261218929
42
-0.41421356237313667
10
312.58749999999992
20
158.05417261218921
10
325.58750000000003
20
158.05417261218929
42
-0.41421356237319906
0
LWPOLYLINE
5
106
100
AcDbEntity
8
0
100
AcDbPolyline
90
8
70
1
43
0.0
10
312.08749999999998
20
106.45417261218927
42
0.41421356237315748
10
312.58749999999998
20
105.95417261218924
10
325.58750000000003
20
105.95417261218928
42
0.41421356237326151
10
326.08749999999998
20
106.45417261218924
10
326.08750000000015
20
119.4541726121893
42
0.41421356237319906
10
325.58750000000003
20
119.95417261218931
10
312.58750000000003
20
119.95417261218932
42
0.41421356237309503
10
312.08749999999998
20
119.4541726121893
0
LWPOLYLINE
5
107
100
AcDbEntity
8
0
100
AcDbPolyline
90
8
70
1
43
0.0
10
273.98750000000007
20
68.354172612189288
42
0.41421356237304302
10
274.48750000000007
20
67.854172612189274
10
287.48749999999995
20
67.854172612189259
42
0.41421356237313667
10
287.98749999999995
20
68.354172612189274
10
287.98750000000007
20
81.354172612189316
42
0.41421356237314705
10
287.48750000000001
20
81.85417261218933
10
274.48750000000007
20
81.854172612189302
42
0.41421356237312623
10
273.98749999999995
20
81.354172612189316
0
LWPOLYLINE
5
108
100
AcDbEntity
8
0
100
AcDbPolyline
90
8
70
1
43
0.0
10
307.03750000000002
20
100.40417261218929
10
307.03750000000002
20
87.404172612189313
42
-0.41421356237315748
10
306.53750000000002
20
86.90417261218937
10
293.53750000000002
20
86.904172612189271
42
-0.41421356237307422
10
293.03750000000002
20
87.404172612189313
10
293.03750000000002
20
100.40417261218931
42
-0.41421356237309503
10
293.53749999999997
20
100.90417261218929
10
306.53749999999997
20
100.90417261218929
42
-0.41421356237304302
0
LWPOLYLINE
5
109
100
AcDbEntity
8
0
100
AcDbPolyline
90
8
70
1
43
0.0
10
222.09999999999997
20
100.90417261218929
42
0.41421356237313667
10
221.59999999999997
20
100.40417261218927
10
221.59999999999997
20
87.404172612189313
42
0.41421356237307422
10
222.09999999999997
20
86.904172612189257
10
235.10000000000002
20
86.904172612189257
42
0.41421356237309503
10
235.59999999999999
20
87.404172612189313
10
235.60000000000002
20
100.40417261218931
42
0.41421356237321988
10
235.10000000000002
20
100.9041726121893
0
LWPOLYLINE
5
110
100
AcDbEntity
8
0
100
AcDbPolyline
90
8
70
1
43
0.0
10
293.03750000000002
20
68.354172612189274
42
0.41421356237295454
10
293.53749999999997
20
67.854172612189259
10
306.53749999999997
20
67.854172612189259
42
0.41421356237315748
10
307.03750000000002
20
68.354172612189274
10
307.03750000000008
20
81.354172612189302
42
0.41421356237319906
10
306.53749999999997
20
81.854172612189302
10
293.53749999999997
20
81.85417261218933
42
0.4142135623730846
10
293.03749999999997
20
81.354172612189316
0
LWPOLYLINE
5
111
100
AcDbEntity
8
0
100
AcDbPolyline
90
8
70
1
43
0.0
10
212.57499999999996
20
119.95417261218931
10
225.57500000000002
20
119.95417261218934
42
-0.41421356237311585
10
226.07499999999993
20
119.4541726121893
10
226.07499999999993
20
106.45417261218927
42
-0.41421356237313667
10
225.57499999999993
20
105.95417261218927
10
212.57499999999996
20
105.95417261218924
42
-0.41421356237307422
10
212.07499999999999
20
106.45417261218924
10
212.07499999999996
20
119.4541726121893
42
-0.41421356237313667
0
LWPOLYLINE
5
112
100
AcDbEntity
8
0
100
AcDbPolyline
90
8
70
1
43
0.0
10
240.65000000000001
20
68.354172612189274
42
0.41421356237301177
10
241.15000000000003
20
67.854172612189259
10
256.53125
20
67.854172612189245
42
0.41421356237310542
10
257.03125000000011
20
68.354172612189274
10
257.0312500000008
20
81.354172612189316
42
0.4142135623730846
10
256.5312500000008
20
81.854172612189302
10
241.15000000000003
20
81.854172612189274
42
0.4142135623730846
10
240.65000000000009
20
81.354172612189274
0
LWPOLYLINE
5
113
100
AcDbEntity
8
0
100
AcDbPolyline
90
8
70
1
43
0.0
10
249.88749999999996
20
157.55417261218929
10
249.88749999999996
20
144.55417261218932
42
-0.41421356237303258
10
249.38749999999999
20
144.05417261218929
10
236.38749999999999
20
144.05417261218932
42
-0.41421356237313667
10
235.88749999999999
20
144.55417261218932
10
235.88749999999999
20
157.55417261218929
42
-0.41421356237309503
10
236.38749999999993
20
158.05417261218929
10
249.38749999999996
20
158.05417261218929
42
-0.41421356237311585
0
LWPOLYLINE
5
114
100
AcDbEntity
8
0
100
AcDbPolyline
90
8
70
1
43
0.0
10
326.08750000000015
20
138.50417261218928
10
326.08749999999992
20
125.50417261218931
42
-0.41421356237328233
10
325.58749999999998
20
125.00417261218929
10
312.58749999999998
20
125.00417261218922
42
-0.41421356237309503
10
312.08749999999998
20
125.50417261218927
10
312.08749999999992
20
138.50417261218928
42
-0.41421356237307422
10
312.58750000000003
20
139.00417261218931
10
325.58750000000003
20
139.00417261218928
42
-0.4142135623731783
0
LWPOLYLINE
5
115
100
AcDbEntity
8
0
100
AcDbPolyline
90
16
70
1
43
0.0
10
232.71875
20
67.854172612189259
10
228.95749999999992
20
67.854172612188435
42
0.41421356237303258
10
228.45750000000004
20
67.354172612188435
10
228.45750000000007
20
67.234172612189269
42
-0.41421356237307422
10
227.9575000000001
20
66.734172612189269
10
219.71750000000009
20
66.734172612189269
42
-0.41421356237311585
10
219.21750000000003
20
67.234172612189269
10
219.21750000000003
20
83.474172612189292
42
-0.41421356237313667
10
219.71750000000003
20
83.974172612189321
10
227.95750000000004
20
83.974172612189335
42
-0.4142135623730534
10
228.45750000000004
20
83.474172612189292
10
228.45750000000007
20
82.354172612189217
42
0.4142135623730846
10
228.95750000000007
20
81.854172612189231
10
232.71875
20
81.854172612189245
42
-0.41421356237313667
10
233.21875000000006
20
81.354172612189274
10
233.21875000000006
20
68.354172612189274
42
-0.41421356237300139
0
LWPOLYLINE
5
116
100
AcDbEntity
8
0
100
AcDbPolyline
90
8
70
1
43
0.0
10
239.86249999999998
20
125.00417261218927
42
0.41421356237311585
10
240.36249999999998
20
125.50417261218931
10
240.36249999999995
20
138.50417261218928
42
0.41421356237321988
10
239.86249999999995
20
139.00417261218928
10
226.86250000000001
20
139.00417261218934
42
0.4142135623730534
10
226.36249999999995
20
138.50417261218922
10
226.36250000000004
20
125.50417261218927
42
0.41421356237303258
10
226.86249999999998
20
125.00417261218925
0
LWPOLYLINE
5
117
100
AcDbEntity
8
0
100
AcDbPolyline
90
8
70
1
43
0.0
10
244.62500000000006
20
105.95417261218927
10
231.625
20
105.95417261218924
42
-0.41421356237314705
10
231.12499999999997
20
106.45417261218925
10
231.12499999999997
20
119.4541726121893
42
-0.41421356237303258
10
231.62499999999994
20
119.95417261218932
10
244.62500000000003
20
119.95417261218934
42
-0.41421356237311585
10
245.12499999999994
20
119.4541726121893
10
245.125
20
106.45417261218927
42
-0.4142135623730534
0
LWPOLYLINE
5
118
100
AcDbEntity
8
0
100
AcDbPolyline
90
8
70
1
43
0.0
10
312.58749999999998
20
81.854172612189302
10
325.58750000000003
20
81.85417261218933
42
-0.4142135623731783
10
326.0875000000002
20
81.354172612189302
10
326.08750000000009
20
68.354172612189274
42
-0.4142135623731783
10
325.58750000000003
20
67.854172612189373
10
312.58750000000009
20
67.854172612189259
42
-0.41421356237306384
10
312.08750000000003
20
68.354172612189288
10
312.08749999999998
20
81.354172612189302
42
-0.41421356237315748
0
LWPOLYLINE
5
119
100
AcDbEntity
8
0
100
AcDbPolyline
90
8
70
1
43
0.0
10
312.58749999999998
20
100.90417261218926
10
325.58749999999986
20
100.90417261218929
42
-0.41421356237318868
10
326.08749999999998
20
100.40417261218929
10
326.08749999999992
20
87.404172612189313
42
-0.41421356237326151
10
325.58750000000003
20
86.904172612189399
10
312.58749999999998
20
86.904172612189271
42
-0.41421356237307422
10
312.08749999999998
20
87.404172612189313
10
312.08749999999998
20
100.40417261218927
42
-0.41421356237313667
0
LWPOLYLINE
5
120
100
AcDbEntity
8
0
100
AcDbPolyline
90
8
70
1
43
0.0
10
245.91249999999997
20
139.00417261218931
10
258.91249999999997
20
139.00417261218931
42
-0.41421356237321988
10
259.41249999999997
20
138.50417261218928
10
259.41250000000002
20
125.50417261218931
42
-0.41421356237311585
10
258.91250000000002
20
125.00417261218927
10
245.91250000000002
20
125.00417261218927
42
-0.41421356237309503
10
245.41250000000002
20
125.50417261218927
10
245.41249999999997
20
138.50417261218928
42
-0.41421356237311585
0
LWPOLYLINE
5
121
100
AcDbEntity
8
0
100
AcDbPolyline
90
6
70
1
43
0.0
10
196.78750000000002
20
162.32917261218932
10
196.78750000000002
20
163.82917261218927
10
226.78750000000002
20
163.82917261218927
10
226.78750000000002
20
162.32917261218932
10
212.72424969975987
20
162.32917261218932
42
-0.69388866648872305
10
210.85075030024015
20
162.3291726121893
0
LWPOLYLINE
5
122
100
AcDbEntity
8
0
100
AcDbPolyline
90
8
70
1
43
0.0
10
113.53750000000005
20
66.854172612189245
10
100.78125000000003
20
66.854172612189231
42
-0.41421356237309503
10
100.28125000000003
20
67.354172612189245
10
100.28125000000003
20
83.354172612189274
42
-0.41421356237309503
10
100.78125000000003
20
83.854172612189274
10
113.53750000000005
20
83.854172612189274
42
-0.41421356237309503
10
114.03750000000005
20
83.354172612189274
10
114.03750000000004
20
67.354172612189245
42
-0.41421356237309503
0
LWPOLYLINE
5
123
100
AcDbEntity
8
0
100
AcDbPolyline
90
8
70
1
43
0.0
10
144.28125
20
72.854172612189302
10
116.53750000000004
20
72.854172612189316
42
-0.41421356237310025
10
115.53750000000005
20
73.854172612189302
10
115.53750000000005
20
75.854172612189316
42
-0.41421356237309503
10
116.53750000000002
20
76.854172612189302
10
144.28125
20
76.854172612189316
42
-0.41421356237308982
10
145.28125000000003
20
75.854172612189316
10
145.28125
20
73.854172612189302
42
-0.41421356237309503
0
LWPOLYLINE
5
124
100
AcDbEntity
8
0
100
AcDbPolyline
90
6
70
1
43
0.0
10
287.3377503002402
20
162.32917261218938
42
0.69388866648871073
10
289.21124969975961
20
162.32917261218932
10
303.27449999999993
20
162.32917261218932
10
303.27449999999993
20
163.82917261218927
10
273.27449999999993
20
163.82917261218927
10
273.27449999999993
20
162.32917261218932
0
LWPOLYLINE
5
125
100
AcDbEntity
8
0
100
AcDbPolyline
90
6
70
1
43
0.0
10
77.725000000000009
20
63.579172612189296
10
91.788250300240264
20
63.579172612189311
42
-0.6938886664886893
10
93.661749699759753
20
63.579172612189296
10
107.72499999999999
20
63.579172612189296
10
107.72500000000001
20
62.079172612189339
10
77.725000000000009
20
62.079172612189339
0
LWPOLYLINE
5
126
100
AcDbEntity
8
0
100
AcDbPolyline
90
8
70
1
43
0.0
10
263.67500000000001
20
105.95417261218927
10
250.67500000000001
20
105.95417261218924
42
-0.4142135623731783
10
250.17499999999998
20
106.45417261218927
10
250.17499999999998
20
119.4541726121893
42
-0.41421356237303258
10
250.67499999999995
20
119.95417261218932
10
263.67500000000001
20
119.95417261218934
42
-0.4142135623730534
10
264.17500000000007
20
119.4541726121893
10
264.17500000000001
20
106.45417261218925
42
-0.41421356237306384
0
LWPOLYLINE
5
127
100
AcDbEntity
8
0
100
AcDbPolyline
90
8
70
1
43
0.0
10
207.8125
20
139.00417261218939
42
0.4142135623730534
10
207.31249999999994
20
138.50417261218928
10
207.31249999999994
20
125.50417261218927
42
0.41421356237303258
10
207.81249999999989
20
125.00417261218925
10
220.81249999999997
20
125.00417261218922
42
0.41421356237309503
10
221.3125
20
125.50417261218927
10
221.3125
20
138.50417261218928
42
0.41421356237321988
10
220.8125
20
139.00417261218928
0
LWPOLYLINE
5
128
100
AcDbEntity
8
0
100
AcDbPolyline
90
8
70
1
43
0.0
10
254.93750000000006
20
144.55417261218932
10
254.93750000000006
20
157.55417261218929
42
-0.41421356237297013
10
255.43749999999994
20
158.05417261218929
10
268.43749999999994
20
158.05417261218929
42
-0.41421356237311585
10
268.93749999999989
20
157.55417261218926
10
268.9375
20
144.55417261218929
42
-0.4142135623731783
10
268.43749999999994
20
144.05417261218935
10
255.43749999999994
20
144.05417261218926
42
-0.41421356237309503
0
LWPOLYLINE
5
129
100
AcDbEntity
8
0
100
AcDbPolyline
90
20
70
1
43
0.0
10
273.98749999999995
20
144.55417261218932
42
0.41421356237319906
10
274.48750000000013
20
144.05417261218926
10
274.94950000000006
20
144.05417261218926
10
274.94950000000006
20
143.55417261218929
42
0.41421356237316442
10
275.69950000000006
20
142.80417261218932
10
281.4495
20
142.80417261218932
42
0.41421356237309503
10
282.19949999999994
20
143.55417261218926
10
282.19949999999994
20
144.05417261218926
10
298.82550000000003
20
144.05417261218926
10
298.82550000000003
20
143.55417261218926
42
0.41421356237310897
10
299.57549999999992
20
142.80417261218932
10
305.32550000000009
20
142.80417261218926
42
0.41421356237309503
10
306.07550000000009
20
143.55417261218926
10
306.07550000000009
20
144.05417261218926
10
306.53750000000002
20
144.05417261218932
42
0.41421356237315748
10
307.03750000000002
20
144.55417261218932
10
307.03749999999997
20
157.55417261218926
42
0.41421356237309503
10
306.53749999999997
20
158.05417261218929
10
274.48750000000007
20
158.05417261218929
42
0.41421356237307422
10
273.98750000000001
20
157.55417261218926
0
LWPOLYLINE
5
130
100
AcDbEntity
8
0
100
AcDbPolyline
90
8
70
1
43
0.0
10
217.33750000000001
20
158.05417261218932
42
0.4142135623730534
10
216.83750000000003
20
157.55417261218926
10
216.83750000000006
20
144.55417261218932
42
0.41421356237307422
10
217.33750000000001
20
144.05417261218923
10
230.33750000000001
20
144.05417261218932
42
0.41421356237309503
10
230.83750000000003
20
144.55417261218929
10
230.83750000000006
20
157.55417261218926
42
0.41421356237307422
10
230.33749999999995
20
158.05417261218926
0
LWPOLYLINE
5
131
100
AcDbEntity
8
0
100
AcDbPolyline
90
8
70
1
43
0.0
10
254.64999999999998
20
100.40417261218931
10
254.65000000000001
20
87.404172612189313
42
-0.41421356237309503
10
254.14999999999998
20
86.904172612189313
10
241.15000000000003
20
86.904172612189313
42
-0.41421356237307422
10
240.64999999999998
20
87.404172612189313
10
240.64999999999998
20
100.40417261218931
42
-0.41421356237315748
10
241.15000000000006
20
100.90417261218929
10
254.15000000000003
20
100.90417261218929
42
-0.41421356237307422
0
LWPOLYLINE
5
132
100
AcDbEntity
8
0
100
AcDbPolyline
90
29
70
1
43
0.0
10
269.72500000000002
20
119.95417261218931
10
290.65625
20
119.95417261218931
10
290.65625
20
125.00417261218928
10
288.77499999999998
20
125.00417261218927
42
-0.41421356237307422
10
288.27500000000003
20
125.50417261218931
10
288.27499999999998
20
138.50417261218928
42
-0.41421356237301177
10
288.77499999999992
20
139.00417261218934
10
301.77499999999992
20
139.00417261218931
42
-0.41421356237321988
10
302.27499999999992
20
138.50417261218928
10
302.27499999999998
20
138.16717261218929
10
304.15625
20
138.16717261218929
42
-0.41421356237306733
10
304.90625
20
137.41717261218929
10
304.90625
20
107.54117261218929
42
-0.41421356237310197
10
304.15625
20
106.79117261218923
10
303.81925000000001
20
106.79117261218927
10
303.81925000000001
20
105.45417261218931
42
-0.41421356237309503
10
303.06925000000001
20
104.7041726121893
10
297.06925000000001
20
104.70417261218932
42
-0.41421356237306034
10
296.31925000000007
20
105.4541726121893
10
296.31925000000001
20
105.95417261218927
10
279.94324999999998
20
105.95417261218927
10
279.94324999999998
20
105.4541726121893
42
-0.41421356237310197
10
279.19325000000003
20
104.7041726121893
10
273.19324999999998
20
104.70417261218928
42
-0.41421356237309503
10
272.44324999999998
20
105.45417261218931
10
272.44324999999998
20
105.95417261218927
10
269.72500000000002
20
105.95417261218927
42
-0.41421356237313667
10
269.22500000000002
20
106.45417261218927
10
269.22500000000002
20
119.4541726121893
42
-0.41421356237313667
0
LWPOLYLINE
5
133
100
AcDbEntity
8
0
100
AcDbPolyline
90
8
70
1
43
0.0
10
277.96249999999998
20
125.00417261218925
10
264.96249999999998
20
125.00417261218927
42
-0.41421356237311585
10
264.46249999999998
20
125.50417261218927
10
264.46250000000003
20
138.50417261218928
42
-0.41421356237309503
10
264.96249999999992
20
139.00417261218928
10
277.96249999999992
20
139.00417261218931
42
-0.41421356237307422
10
278.46249999999998
20
138.50417261218928
10
278.46249999999998
20
125.50417261218927
42
-0.4142135623730534
0
LWPOLYLINE
5
134
100
AcDbEntity
8
0
100
AcDbPolyline
90
8
70
1
43
0.0
10
267.34375
20
100.90417261218937
10
280.34375
20
100.90417261218931
42
-0.4142135623732407
10
280.84375
20
100.40417261218931
10
280.84375
20
87.404172612189313
42
-0.41421356237309503
10
280.34375
20
86.904172612189257
10
267.34374999999994
20
86.904172612189271
42
-0.41421356237303258
10
266.84375
20
87.404172612189313
10
266.84374999999994
20
100.40417261218931
42
-0.41421356237303258
0
LWPOLYLINE
5
135
100
AcDbEntity
8
0
100
AcDbPolyline
90
8
70
1
43
0.0
10
92.224999999999966
20
67.854172612189302
10
76.843749999999815
20
67.854172612189274
42
-0.4142135623730534
10
76.343749999999801
20
68.354172612189288
10
76.343750000000028
20
81.354172612189274
42
-0.4142135623730846
10
76.843750000000028
20
81.854172612189274
10
92.224999999999966
20
81.854172612189302
42
-0.41421356237311585
10
92.725000000000009
20
81.354172612189302
10
92.724999999999966
20
68.354172612189217
42
-0.41421356237311585
0
LWPOLYLINE
5
136
100
AcDbEntity
8
0
100
AcDbPolyline
90
8
70
1
43
0.0
10
16.524999999999928
20
81.354172612189302
10
16.524999999999963
20
68.354172612189288
42
-0.41421356237310542
10
16.024999999999956
20
67.85417261218933
10
3.0249999999999488
20
67.854172612189274
42
-0.41421356237306384
10
2.5249999999999595
20
68.354172612189288
10
2.5249999999999773
20
81.354172612189316
42
-0.41421356237304302
10
3.0249999999999133
20
81.854172612189302
10
16.024999999999956
20
81.854172612189302
42
-0.41421356237311585
0
LWPOLYLINE
5
137
100
AcDbEntity
8
0
100
AcDbPolyline
90
6
70
1
43
0.0
10
32.036749699759746
20
63.579172612189289
42
0.69388866648870162
10
30.163250300240243
20
63.579172612189289
10
16.099999999999994
20
63.579172612189296
10
16.099999999999994
20
62.079172612189339
10
46.099999999999994
20
62.079172612189339
10
46.099999999999994
20
63.579172612189296
0
LWPOLYLINE
5
138
100
AcDbEntity
8
0
100
AcDbPolyline
90
8
70
1
43
0.0
10
107.8
20
100.9041726121893
10
120.79999999999995
20
100.9041726121893
42
-0.4142135623730534
10
121.29999999999994
20
100.40417261218931
10
121.29999999999997
20
87.404172612189313
42
-0.41421356237312623
10
120.79999999999997
20
86.904172612189285
10
107.79999999999998
20
86.904172612189271
42
-0.41421356237311585
10
107.29999999999997
20
87.404172612189313
10
107.29999999999995
20
100.40417261218931
42
-0.41421356237312623
0
LWPOLYLINE
5
139
100
AcDbEntity
8
0
100
AcDbPolyline
90
8
70
1
43
0.0
10
164.16250000000005
20
138.50417261218928
42
0.4142135623732407
10
163.66250000000002
20
139.00417261218931
10
150.66249999999997
20
139.00417261218928
42
0.41421356237309503
10
150.16249999999997
20
138.50417261218928
10
150.16249999999997
20
125.50417261218924
42
0.4142135623730846
10
150.66249999999999
20
125.00417261218928
10
163.66250000000002
20
125.00417261218929
42
0.41421356237309503
10
164.16249999999997
20
125.50417261218927
0
LWPOLYLINE
5
140
100
AcDbEntity
8
0
100
AcDbPolyline
90
8
70
1
43
0.0
10
53.031250000000028
20
81.854172612189245
10
68.412499999999952
20
81.854172612189302
42
-0.41421356237309503
10
68.912499999999966
20
81.354172612189302
10
68.91249999999998
20
68.354172612189274
42
-0.41421356237307422
10
68.412499999999952
20
67.854172612189274
10
53.031250000000156
20
67.854172612189274
42
-0.41421356237306384
10
52.531250000000114
20
68.354172612189274
10
52.531250000000078
20
81.354172612189274
42
-0.4142135623730846
0
LWPOLYLINE
5
141
100
AcDbEntity
8
0
100
AcDbPolyline
90
8
70
1
43
0.0
10
28.718750000000028
20
68.354172612189288
42
0.41421356237306384
10
29.218750000000053
20
67.854172612189274
10
44.600000000000044
20
67.854172612189245
42
0.41421356237311585
10
45.100000000000037
20
68.354172612189274
10
45.09999999999998
20
81.354172612189302
42
0.41421356237309503
10
44.599999999999973
20
81.854172612189302
10
29.218750000000036
20
81.854172612189274
42
0.41421356237310542
10
28.718750000000028
20
81.354172612189274
0
LWPOLYLINE
5
142
100
AcDbEntity
8
0
100
AcDbPolyline
90
8
70
1
43
0.0
10
88.749999999999986
20
100.90417261218931
42
0.41421356237314705
10
88.249999999999957
20
100.40417261218931
10
88.25
20
87.404172612189313
42
0.41421356237310542
10
88.749999999999986
20
86.904172612189257
10
101.74999999999997
20
86.904172612189313
42
0.41421356237309503
10
102.24999999999996
20
87.404172612189313
10
102.24999999999997
20
100.40417261218931
42
0.4142135623730846
10
101.74999999999996
20
100.90417261218926
0
LWPOLYLINE
5
143
100
AcDbEntity
8
0
100
AcDbPolyline
90
20
70
1
43
0.0
10
60.181749999999958
20
85.654172612189285
10
54.18174999999998
20
85.654172612189285
42
-0.41421356237307422
10
53.431749999999951
20
86.404172612189271
10
53.431749999999987
20
86.904172612189285
10
37.055749999999975
20
86.904172612189285
10
37.055749999999975
20
86.404172612189313
42
-0.41421356237306733
10
36.305749999999968
20
85.654172612189313
10
30.305749999999954
20
85.654172612189328
42
-0.41421356237308815
10
29.555749999999961
20
86.404172612189299
10
29.555749999999961
20
86.904172612189285
10
29.218749999999947
20
86.904172612189313
42
-0.4142135623730846
10
28.718749999999957
20
87.404172612189313
10
28.718749999999957
20
100.40417261218927
42
-0.41421356237309503
10
29.218749999999964
20
100.90417261218929
10
63.649999999999984
20
100.9041726121893
42
-0.41421356237311585
10
64.149999999999977
20
100.40417261218927
10
64.149999999999991
20
87.404172612189285
42
-0.41421356237307422
10
63.649999999999984
20
86.904172612189242
10
60.931749999999987
20
86.904172612189285
10
60.931749999999987
20
86.404172612189313
42
-0.41421356237306733
0
LWPOLYLINE
5
144
100
AcDbEntity
8
0
100
AcDbPolyline
90
8
70
1
43
0.0
10
140.35000000000002
20
100.40417261218931
42
0.41421356237310542
10
139.84999999999994
20
100.9041726121893
10
126.84999999999997
20
100.90417261218929
42
0.41421356237312623
10
126.35000000000002
20
100.40417261218931
10
126.34999999999998
20
87.404172612189313
42
0.41421356237311585
10
126.84999999999999
20
86.904172612189257
10
139.84999999999999
20
86.904172612189328
42
0.41421356237309503
10
140.34999999999997
20
87.404172612189313
0
LWPOLYLINE
5
145
100
AcDbEntity
8
0
100
AcDbPolyline
90
8
70
1
43
0.0
10
184
20
100.9041726121893
10
196.99999999999994
20
100.90417261218929
42
-0.41421356237310542
10
197.49999999999994
20
100.40417261218929
10
197.5
20
87.404172612189313
42
-0.41421356237315748
10
197.00000000000003
20
86.904172612189399
10
184
20
86.904172612189271
42
-0.41421356237319906
10
183.49999999999997
20
87.404172612189313
10
183.5
20
100.40417261218931
42
-0.41421356237309503
0
LWPOLYLINE
5
146
100
AcDbEntity
8
0
100
AcDbPolyline
90
8
70
1
43
0.0
10
130.82499999999996
20
119.4541726121893
10
130.82499999999999
20
106.45417261218925
42
-0.4142135623730846
10
130.32499999999999
20
105.95417261218928
10
117.32499999999999
20
105.95417261218925
42
-0.41421356237303258
10
116.82499999999996
20
106.45417261218924
10
116.82499999999996
20
119.4541726121893
42
-0.41421356237313667
10
117.32499999999999
20
119.95417261218932
10
130.32499999999996
20
119.95417261218934
42
-0.41421356237311585
0
LWPOLYLINE
5
147
100
AcDbEntity
8
0
100
AcDbPolyline
90
8
70
1
43
0.0
10
69.699999999999989
20
100.90417261218929
42
0.4142135623730846
10
69.199999999999989
20
100.40417261218929
10
69.200000000000003
20
87.404172612189313
42
0.41421356237313667
10
69.699999999999974
20
86.904172612189328
10
82.69999999999996
20
86.904172612189285
42
0.41421356237309503
10
83.19999999999996
20
87.404172612189313
10
83.19999999999996
20
100.40417261218929
42
0.41421356237311585
10
82.699999999999974
20
100.90417261218926
0
LWPOLYLINE
5
148
100
AcDbEntity
8
0
100
AcDbPolyline
90
8
70
1
43
0.0
10
164.95000000000002
20
100.90417261218923
10
177.94999999999999
20
100.90417261218931
42
-0.41421356237321988
10
178.44999999999999
20
100.40417261218931
10
178.44999999999993
20
87.404172612189313
42
-0.41421356237309503
10
177.94999999999999
20
86.904172612189285
10
164.95000000000002
20
86.904172612189271
42
-0.4142135623730534
10
164.44999999999996
20
87.404172612189313
10
164.44999999999999
20
100.40417261218934
42
-0.41421356237307422
0
LWPOLYLINE
5
149
100
AcDbEntity
8
0
100
AcDbPolyline
90
8
70
1
43
0.0
10
68.912499999999966
20
138.50417261218928
10
68.912499999999966
20
125.50417261218931
42
-0.41421356237309503
10
68.412499999999952
20
125.00417261218929
10
55.41249999999998
20
125.00417261218927
42
-0.41421356237311585
10
54.912499999999973
20
125.50417261218931
10
54.912499999999973
20
138.50417261218928
42
-0.41421356237309503
10
55.41249999999998
20
139.00417261218931
10
68.412499999999952
20
139.00417261218931
42
-0.41421356237309503
0
LWPOLYLINE
5
150
100
AcDbEntity
8
0
100
AcDbPolyline
90
6
70
1
43
0.0
10
39.400750300240226
20
162.32917261218932
42
0.69388866648870762
10
41.274249699759729
20
162.32917261218932
10
55.337499999999977
20
162.32917261218932
10
55.337499999999977
20
163.82917261218927
10
25.337499999999977
20
163.82917261218927
10
25.337499999999977
20
162.32917261218932
0
LWPOLYLINE
5
151
100
AcDbEntity
8
0
100
AcDbPolyline
90
8
70
1
43
0.0
10
187.47499999999991
20
105.95417261218927
42
0.41421356237313667
10
187.97499999999991
20
106.45417261218927
10
187.97499999999991
20
119.4541726121893
42
0.41421356237315748
10
187.47499999999991
20
119.95417261218934
10
174.47499999999997
20
119.95417261218932
42
0.41421356237311585
10
173.97500000000002
20
119.4541726121893
10
173.97499999999997
20
106.45417261218927
42
0.41421356237311585
10
174.47499999999997
20
105.95417261218924
0
LWPOLYLINE
5
152
100
AcDbEntity
8
0
100
AcDbPolyline
90
8
70
1
43
0.0
10
103.03749999999999
20
158.05417261218929
42
0.41421356237312623
10
102.53749999999997
20
157.55417261218929
10
102.53749999999997
20
144.55417261218932
42
0.41421356237309503
10
103.03749999999997
20
144.05417261218926
10
116.03749999999994
20
144.05417261218929
42
0.4142135623730534
10
116.53749999999994
20
144.55417261218932
10
116.53749999999995
20
157.55417261218926
42
0.4142135623730534
10
116.03749999999994
20
158.05417261218926
0
LWPOLYLINE
5
153
100
AcDbEntity
8
0
100
AcDbPolyline
90
4
70
1
43
0.0
10
11.124999999999936
20
157.80625890338271
10
11.124999999999972
20
147.30625890338277
42
-0.99999999999999989
10
7.9249999999999687
20
147.30625890338277
10
7.9249999999999332
20
157.8062589033828
42
-0.99999999999999989
0
LWPOLYLINE
5
154
100
AcDbEntity
8
0
100
AcDbPolyline
90
8
70
1
43
0.0
10
149.87499999999997
20
119.4541726121893
10
149.875
20
106.45417261218925
42
-0.4142135623730846
10
149.375
20
105.95417261218928
10
136.375
20
105.95417261218925
42
-0.4142135623730534
10
135.875
20
106.45417261218924
10
135.875
20
119.4541726121893
42
-0.41421356237309503
10
136.375
20
119.95417261218935
10
149.37499999999997
20
119.95417261218934
42
-0.41421356237311585
0
LWPOLYLINE
5
155
100
AcDbEntity
8
0
100
AcDbPolyline
90
8
70
1
43
0.0
10
112.5625
20
139.00417261218928
10
125.56249999999999
20
139.00417261218931
42
-0.41421356237303258
10
126.06249999999996
20
138.50417261218928
10
126.06249999999994
20
125.50417261218924
42
-0.4142135623730222
10
125.56249999999994
20
125.00417261218927
10
112.56249999999997
20
125.00417261218929
42
-0.41421356237307422
10
112.06249999999997
20
125.50417261218927
10
112.06249999999999
20
138.50417261218928
42
-0.41421356237310542
0
LWPOLYLINE
5
156
100
AcDbEntity
8
0
100
AcDbPolyline
90
8
70
1
43
0.0
10
159.40000000000003
20
100.40417261218931
42
0.41421356237310542
10
158.89999999999995
20
100.9041726121893
10
145.89999999999998
20
100.90417261218929
42
0.41421356237310542
10
145.39999999999998
20
100.40417261218929
10
145.39999999999995
20
87.404172612189313
42
0.41421356237309503
10
145.89999999999998
20
86.904172612189271
10
158.90000000000001
20
86.904172612189313
42
0.41421356237309503
10
159.40000000000001
20
87.404172612189313
0
LWPOLYLINE
5
157
100
AcDbEntity
8
0
100
AcDbPolyline
90
8
70
1
43
0.0
10
78.437499999999972
20
157.55417261218926
10
78.437499999999986
20
144.55417261218932
42
-0.41421356237311585
10
77.9375
20
144.05417261218929
10
64.937499999999972
20
144.05417261218932
42
-0.41421356237306384
10
64.437499999999972
20
144.55417261218929
10
64.437499999999972
20
157.55417261218926
42
-0.41421356237313667
10
64.937499999999986
20
158.05417261218929
10
77.937499999999972
20
158.05417261218929
42
-0.4142135623730846
0
LWPOLYLINE
5
158
100
AcDbEntity
8
0
100
AcDbPolyline
90
8
70
1
43
0.0
10
173.18749999999997
20
144.05417261218926
10
160.18749999999997
20
144.05417261218932
42
-0.41421356237309503
10
159.68749999999997
20
144.55417261218932
10
159.68749999999997
20
157.55417261218926
42
-0.41421356237311585
10
160.1875
20
158.05417261218929
10
173.18749999999997
20
158.05417261218929
42
-0.41421356237311585
10
173.6875
20
157.55417261218929
10
173.68749999999994
20
144.55417261218932
42
-0.41421356237301177
0
LWPOLYLINE
5
159
100
AcDbEntity
8
0
100
AcDbPolyline
90
8
70
1
43
0.0
10
45.88749999999996
20
158.05417261218926
10
58.887499999999982
20
158.05417261218929
42
-0.41421356237311585
10
59.387499999999953
20
157.55417261218926
10
59.387499999999974
20
144.55417261218932
42
-0.41421356237311585
10
58.887499999999982
20
144.05417261218929
10
45.887499999999974
20
144.05417261218932
42
-0.41421356237307422
10
45.387499999999967
20
144.55417261218929
10
45.387499999999989
20
157.55417261218929
42
-0.41421356237306384
0
LWPOLYLINE
5
160
100
AcDbEntity
8
0
100
AcDbPolyline
90
8
70
1
43
0.0
10
26.837499999999963
20
158.05417261218932
42
0.41421356237309503
10
26.337499999999956
20
157.55417261218929
10
26.337499999999956
20
144.55417261218932
42
0.41421356237309503
10
26.837499999999963
20
144.05417261218926
10
39.83749999999997
20
144.05417261218929
42
0.41421356237309503
10
40.337499999999977
20
144.55417261218932
10
40.337499999999942
20
157.55417261218929
42
0.41421356237309503
10
39.83749999999997
20
158.05417261218926
0
LWPOLYLINE
5
161
100
AcDbEntity
8
0
100
AcDbPolyline
90
8
70
1
43
0.0
10
188.26249999999993
20
125.50417261218927
42
0.41421356237309503
10
188.76249999999993
20
125.00417261218929
10
201.76249999999999
20
125.00417261218927
42
0.41421356237311585
10
202.26250000000005
20
125.50417261218927
10
202.26249999999999
20
138.50417261218928
42
0.41421356237315748
10
201.76249999999996
20
139.00417261218928
10
188.76249999999996
20
139.00417261218931
42
0.41421356237299095
10
188.26250000000002
20
138.50417261218928
0
LWPOLYLINE
5
162
100
AcDbEntity
8
0
100
AcDbPolyline
90
8
70
1
43
0.0
10
98.274999999999935
20
119.95417261218932
42
0.41421356237311585
10
97.774999999999963
20
119.4541726121893
10
97.77500000000002
20
106.45417261218924
42
0.41421356237307422
10
98.274999999999977
20
105.95417261218925
10
111.27499999999998
20
105.95417261218927
42
0.41421356237309503
10
111.77499999999998
20
106.45417261218927
10
111.77499999999998
20
119.4541726121893
42
0.41421356237311585
10
111.27499999999998
20
119.95417261218934
0
LWPOLYLINE
5
163
100
AcDbEntity
8
0
100
AcDbPolyline
90
8
70
1
43
0.0
10
45.09999999999998
20
138.50417261218928
42
0.41421356237307422
10
44.599999999999973
20
139.00417261218928
10
31.599999999999966
20
139.00417261218931
42
0.41421356237309503
10
31.099999999999959
20
138.50417261218928
10
31.099999999999959
20
125.50417261218927
42
0.41421356237309503
10
31.599999999999966
20
125.00417261218928
10
44.599999999999973
20
125.00417261218929
42
0.41421356237307422
10
45.09999999999998
20
125.50417261218927
0
LWPOLYLINE
5
164
100
AcDbEntity
8
0
100
AcDbPolyline
90
8
70
1
43
0.0
10
131.61249999999998
20
139.00417261218928
42
0.41421356237311585
10
131.11249999999998
20
138.50417261218928
10
131.11249999999998
20
125.50417261218924
42
0.41421356237307422
10
131.61249999999998
20
125.00417261218928
10
144.61250000000001
20
125.00417261218927
42
0.41421356237301177
10
145.11249999999995
20
125.50417261218924
10
145.11249999999995
20
138.50417261218928
42
0.4142135623730534
10
144.61249999999995
20
139.00417261218928
0
LWPOLYLINE
5
165
100
AcDbEntity
8
0
100
AcDbPolyline
90
8
70
1
43
0.0
10
92.224999999999966
20
105.9541726121893
10
79.224999999999966
20
105.9541726121893
42
-0.4142135623730846
10
78.724999999999994
20
106.45417261218925
10
78.724999999999937
20
119.4541726121893
42
-0.4142135623730846
10
79.224999999999937
20
119.95417261218932
10
92.224999999999966
20
119.95417261218934
42
-0.41421356237311585
10
92.724999999999966
20
119.4541726121893
10
92.724999999999966
20
106.45417261218927
42
-0.41421356237307422
0
LWPOLYLINE
5
166
100
AcDbEntity
8
0
100
AcDbPolyline
90
8
70
1
43
0.0
10
97.487499999999983
20
157.55417261218929
42
0.41421356237307422
10
96.987499999999969
20
158.05417261218929
10
83.98749999999994
20
158.05417261218929
42
0.4142135623730846
10
83.487499999999983
20
157.55417261218929
10
83.487499999999983
20
144.55417261218929
42
0.4142135623730846
10
83.98749999999994
20
144.05417261218926
10
96.987499999999969
20
144.05417261218929
42
0.41421356237309503
10
97.487499999999983
20
144.55417261218932
0
LWPOLYLINE
5
167
100
AcDbEntity
8
0
100
AcDbPolyline
90
8
70
1
43
0.0
10
73.17499999999994
20
105.95417261218927
10
60.174999999999983
20
105.95417261218928
42
-0.41421356237313667
10
59.674999999999997
20
106.45417261218927
10
59.674999999999955
20
119.4541726121893
42
-0.41421356237309503
10
60.174999999999983
20
119.95417261218932
10
73.174999999999969
20
119.95417261218931
42
-0.41421356237310542
10
73.674999999999926
20
119.4541726121893
10
73.674999999999926
20
106.45417261218924
42
-0.41421356237310542
0
LWPOLYLINE
5
168
100
AcDbEntity
8
0
100
AcDbPolyline
90
8
70
1
43
0.0
10
107.01249999999999
20
138.50417261218928
42
0.41421356237307422
10
106.51250000000002
20
139.00417261218931
10
93.51249999999996
20
139.00417261218928
42
0.41421356237313667
10
93.012499999999974
20
138.50417261218928
10
93.012499999999946
20
125.50417261218927
42
0.41421356237303258
10
93.512499999999989
20
125.00417261218928
10
106.51250000000002
20
125.00417261218927
42
0.41421356237307422
10
107.01249999999999
20
125.50417261218927
0
LWPOLYLINE
5
169
100
AcDbEntity
8
0
100
AcDbPolyline
90
8
70
1
43
0.0
10
87.462500000000006
20
125.00417261218928
10
74.462499999999949
20
125.00417261218927
42
-0.41421356237309503
10
73.962499999999977
20
125.50417261218931
10
73.962499999999977
20
138.50417261218928
42
-0.4142135623730846
10
74.462499999999977
20
139.00417261218931
10
87.462500000000006
20
139.00417261218931
42
-0.4142135623730534
10
87.962500000000006
20
138.50417261218928
10
87.962499999999949
20
125.50417261218931
42
-0.41421356237309503
0
LWPOLYLINE
5
170
100
AcDbEntity
8
0
100
AcDbPolyline
90
8
70
1
43
0.0
10
155.42499999999993
20
119.95417261218931
10
168.42499999999998
20
119.95417261218934
42
-0.41421356237311585
10
168.92500000000007
20
119.4541726121893
10
168.92499999999998
20
106.45417261218924
42
-0.41421356237309503
10
168.42500000000001
20
105.95417261218927
10
155.42499999999995
20
105.95417261218924
42
-0.4142135623730534
10
154.92500000000001
20
106.45417261218927
10
154.92500000000004
20
119.4541726121893
42
-0.41421356237307422
0
LWPOLYLINE
5
171
100
AcDbEntity
8
0
100
AcDbPolyline
90
4
70
1
43
0.0
10
15.624999999999964
20
157.74999997764832
42
0.99999999999999989
10
12.424999999999962
20
157.74999997764823
10
12.424999999999962
20
147.30625890338277
42
0.99999999999999989
10
15.624999999999964
20
147.30625890338277
0
LWPOLYLINE
5
172
100
AcDbEntity
8
0
100
AcDbPolyline
90
8
70
1
43
0.0
10
193.52500000000003
20
119.95417261218935
42
0.41421356237309503
10
193.02500000000006
20
119.4541726121893
10
193.02499999999998
20
106.45417261218927
42
0.41421356237311585
10
193.52499999999998
20
105.95417261218924
10
206.52500000000001
20
105.95417261218924
42
0.41421356237313667
10
207.02500000000003
20
106.45417261218927
10
207.02500000000009
20
119.4541726121893
42
0.41421356237321988
10
206.52499999999998
20
119.95417261218934
0
LWPOLYLINE
5
173
100
AcDbEntity
8
0
100
AcDbPolyline
90
8
70
1
43
0.0
10
203.05000000000004
20
100.90417261218924
42
0.4142135623730846
10
202.54999999999998
20
100.40417261218929
10
202.54999999999998
20
87.404172612189313
42
0.4142135623730534
10
203.05000000000004
20
86.904172612189257
10
216.05000000000004
20
86.904172612189328
42
0.41421356237315748
10
216.55000000000004
20
87.404172612189313
10
216.54999999999995
20
100.40417261218929
42
0.41421356237310542
10
216.04999999999995
20
100.90417261218924
0
LWPOLYLINE
5
174
100
AcDbEntity
8
0
100
AcDbPolyline
90
8
70
1
43
0.0
10
122.08749999999996
20
158.05417261218929
42
0.41421356237310542
10
121.58749999999996
20
157.55417261218929
10
121.58749999999998
20
144.55417261218932
42
0.41421356237309503
10
122.08749999999998
20
144.05417261218926
10
135.08749999999995
20
144.05417261218929
42
0.4142135623730534
10
135.58749999999998
20
144.55417261218932
10
135.58749999999998
20
157.55417261218929
42
0.4142135623730222
10
135.08749999999998
20
158.05417261218926
0
LWPOLYLINE
5
175
100
AcDbEntity
8
0
100
AcDbPolyline
90
6
70
1
43
0.0
10
136.58749999999998
20
162.32917261218932
10
122.52424969975975
20
162.3291726121893
42
-0.69388866648873249
10
120.65075030024022
20
162.32917261218927
10
106.58749999999999
20
162.32917261218932
10
106.58749999999998
20
163.82917261218927
10
136.58749999999998
20
163.82917261218927
0
LWPOLYLINE
5
176
100
AcDbEntity
8
0
100
AcDbPolyline
90
8
70
1
43
0.0
10
46.981249999999974
20
105.95417261218928
10
29.218749999999964
20
105.95417261218927
42
-0.4142135623730846
10
28.718749999999957
20
106.45417261218925
10
28.71874999999994
20
119.4541726121893
42
-0.41421356237311585
10
29.218749999999964
20
119.95417261218935
10
46.981249999999974
20
119.95417261218931
42
-0.41421356237311585
10
47.481249999999982
20
119.45417261218927
10
47.48124999999996
20
106.45417261218927
42
-0.41421356237309503
0
LWPOLYLINE
5
177
100
AcDbEntity
8
0
100
AcDbPolyline
90
8
70
1
43
0.0
10
154.13749999999996
20
144.05417261218926
10
141.13749999999996
20
144.05417261218932
42
-0.41421356237309503
10
140.63749999999996
20
144.55417261218932
10
140.63749999999999
20
157.55417261218929
42
-0.41421356237310542
10
141.13749999999999
20
158.05417261218929
10
154.13749999999996
20
158.05417261218929
42
-0.4142135623730534
10
154.63750000000002
20
157.55417261218929
10
154.63750000000007
20
144.55417261218932
42
-0.41421356237309503
0
LWPOLYLINE
5
178
100
AcDbEntity
8
0
100
AcDbPolyline
90
8
70
1
43
0.0
10
197.78749999999999
20
144.55417261218932
10
197.78750000000005
20
157.55417261218926
42
-0.41421356237303258
10
198.28749999999997
20
158.05417261218929
10
211.28749999999997
20
158.05417261218929
42
-0.41421356237315748
10
211.78750000000002
20
157.55417261218926
10
211.78750000000002
20
144.55417261218932
42
-0.41421356237315748
10
211.28749999999999
20
144.05417261218929
10
198.28749999999991
20
144.05417261218926
42
-0.41421356237307422
0
LWPOLYLINE
5
179
100
AcDbEntity
8
0
100
AcDbPolyline
90
4
70
1
43
0.0
10
3.4249999999999403
20
147.30625890338277
42
0.99999999999999989
10
6.6249999999999432
20
147.30625890338277
10
6.6249999999999432
20
157.8062589033828
42
0.99999999999999989
10
3.4249999999999403
20
157.80625890338271
0
LWPOLYLINE
5
180
100
AcDbEntity
8
0
100
AcDbPolyline
90
8
70
1
43
0.0
10
16.524999999999928
20
119.45417261218934
42
0.41421356237309503
10
16.024999999999956
20
119.95417261218932
10
3.0249999999999844
20
119.95417261218932
42
0.41421356237309503
10
2.5249999999999773
20
119.4541726121893
10
2.5249999999999773
20
106.45417261218927
42
0.41421356237309503
10
3.0249999999999488
20
105.9541726121893
10
16.024999999999956
20
105.95417261218928
42
0.41421356237310542
10
16.524999999999981
20
106.45417261218925
0
LWPOLYLINE
5
181
100
AcDbEntity
8
0
100
AcDbPolyline
90
8
70
1
43
0.0
10
169.71249999999995
20
139.00417261218928
10
182.71250000000003
20
139.00417261218931
42
-0.41421356237309503
10
183.21250000000003
20
138.50417261218928
10
183.21249999999998
20
125.50417261218924
42
-0.41421356237309503
10
182.71250000000003
20
125.00417261218927
10
169.71249999999998
20
125.00417261218927
42
-0.41421356237307422
10
169.21249999999992
20
125.50417261218927
10
169.21249999999992
20
138.50417261218928
42
-0.41421356237313667
0
LWPOLYLINE
5
182
100
AcDbEntity
8
0
100
AcDbPolyline
90
8
70
1
43
0.0
10
3.0249999999999488
20
139.00417261218931
42
0.41421356237309503
10
2.5249999999999417
20
138.50417261218928
10
2.5249999999999417
20
125.50417261218927
42
0.41421356237309503
10
3.0249999999999488
20
125.00417261218928
10
16.024999999999956
20
125.00417261218929
42
0.41421356237307422
10
16.524999999999963
20
125.50417261218927
10
16.524999999999963
20
138.50417261218928
42
0.41421356237309503
10
16.024999999999956
20
139.00417261218928
0
LWPOLYLINE
5
183
100
AcDbEntity
8
0
100
AcDbPolyline
90
8
70
1
43
0.0
10
3.0249999999999488
20
100.90417261218926
10
16.024999999999956
20
100.90417261218929
42
-0.41421356237307422
10
16.524999999999963
20
100.40417261218931
10
16.524999999999945
20
87.404172612189313
42
-0.41421356237309503
10
16.024999999999956
20
86.904172612189328
10
3.0249999999999488
20
86.904172612189313
42
-0.41421356237307422
10
2.5249999999999773
20
87.404172612189313
10
2.5249999999999595
20
100.40417261218929
42
-0.4142135623730846
0
LWPOLYLINE
5
184
100
AcDbEntity
8
0
100
AcDbPolyline
90
8
70
1
43
0.0
10
192.23750000000001
20
144.05417261218929
42
0.41421356237307422
10
192.73750000000007
20
144.55417261218932
10
192.73750000000001
20
157.55417261218929
42
0.4142135623730534
10
192.23750000000001
20
158.05417261218926
10
179.23750000000001
20
158.05417261218932
42
0.4142135623731783
10
178.73749999999995
20
157.55417261218929
10
178.73749999999995
20
144.55417261218932
42
0.41421356237315748
10
179.23749999999998
20
144.05417261218926
0
ENDSEC
0
SECTION
2
OBJECTS
0
DICTIONARY
5
C
100
AcDbDictionary
3
ACAD_GROUP
350
D
3
ACAD_MLINESTYLE
350
17
0
DICTIONARY
5
D
100
AcDbDictionary
0
DICTIONARY
5
1A
330
C
100
AcDbDictionary
0
DICTIONARY
5
17
100
AcDbDictionary
0
ENDSEC
0
EOF
